<svg width="81" height="22" viewBox="0 0 81 22" fill="none" xmlns="http://www.w3.org/2000/svg">
<path d="M11.5144 10.3289C14.4246 12.297 15.2207 15.9995 13.3781 18.8255C12.4449 20.2571 11.0294 20.9371 9.41608 21.2292C8.68589 21.362 7.9346 21.4205 7.19123 21.4311C5.12191 21.4576 3.05258 21.4417 0.980624 21.4391C0.3506 21.4391 0.208252 21.2983 0.208252 20.6688C0.208252 14.1748 0.208252 7.68345 0.208252 1.18944C0.208252 0.581209 0.347964 0.435127 0.946354 0.435127C3.20284 0.437783 5.45932 0.411223 7.71581 0.466999C9.23155 0.504184 10.6524 0.897277 11.8835 1.88001C13.8052 3.4152 14.6382 7.63032 11.9652 9.94373C11.8281 10.0633 11.6884 10.1828 11.5144 10.3289ZM3.13167 11.88C3.13167 14.212 3.13167 16.4006 3.13167 18.6104C3.26083 18.6237 3.36364 18.6476 3.46908 18.6476C4.90048 18.6449 6.33187 18.6555 7.76326 18.6237C8.24039 18.613 8.72806 18.536 9.18674 18.4059C10.3334 18.0818 11.032 17.3249 11.1374 16.1057C11.1849 15.5639 11.1928 15.0088 11.1401 14.467C11.0135 13.115 10.3308 12.2625 8.99694 12.135C7.06997 11.9543 5.12454 11.957 3.13167 11.88ZM3.14221 3.28505C3.14221 5.23193 3.14221 7.1788 3.14221 9.13098C4.76076 9.13098 6.34505 9.20004 7.92406 9.11239C9.71659 9.01412 10.5918 7.95436 10.5496 6.14029C10.5443 5.96765 10.5285 5.79766 10.5101 5.62502C10.3756 4.31294 9.76668 3.49753 8.47764 3.38067C6.73519 3.22396 4.97692 3.27443 3.22393 3.23724C3.19757 3.23724 3.17121 3.26646 3.14221 3.28505Z" fill="white"/>
<path d="M19.188 15.6301C19.0931 17.8346 20.2451 19.0776 22.3276 19.0909C22.8258 19.0936 23.3267 19.1069 23.8196 19.0617C24.6553 18.982 25.4883 18.8731 26.3186 18.7456C26.9776 18.6447 27.1543 18.7669 27.1595 19.4256C27.1622 19.8187 27.1964 20.2171 27.1384 20.5996C27.1094 20.7908 26.9355 21.0617 26.772 21.1122C24.6711 21.7523 22.5253 21.9541 20.369 21.4681C18.703 21.0936 17.5167 20.0391 16.9421 18.4322C15.9905 15.7656 15.9878 13.0378 16.8709 10.3605C17.5537 8.29945 19.1168 7.21314 21.2283 6.97144C21.9928 6.88379 22.7915 6.88379 23.5534 6.998C25.8257 7.33531 27.178 8.6713 27.5418 11.0272C27.7447 12.3366 27.75 13.6779 27.8133 15.0086C27.837 15.4893 27.6393 15.6301 27.0936 15.6301C24.65 15.6328 22.2063 15.6301 19.7627 15.6328C19.5808 15.6301 19.3963 15.6301 19.188 15.6301ZM19.1907 13.1281C21.1045 13.1281 23.0209 13.1281 25.0665 13.1281C24.94 12.3526 24.8661 11.6089 24.6869 10.8944C24.4971 10.1427 23.9277 9.69387 23.1817 9.60091C22.5754 9.52654 21.9322 9.51061 21.3364 9.62482C19.8945 9.9037 19.0193 11.3805 19.1907 13.1281Z" fill="white"/>
<path d="M32.9299 15.6301C32.7138 17.6008 33.9185 19.0882 35.7901 19.0696C37.2136 19.0537 38.6397 18.8837 40.0605 18.7403C40.709 18.6739 40.8724 18.7722 40.883 19.4468C40.8856 19.6354 40.883 19.8239 40.883 20.0125C40.8804 21.051 40.883 21.0643 39.9024 21.306C38.1942 21.7257 36.457 21.8558 34.7146 21.6035C32.7586 21.3193 31.3114 20.2675 30.6471 18.3684C29.7113 15.6991 29.7165 12.9714 30.6234 10.2994C31.3298 8.21973 32.9352 7.15731 35.0652 6.96873C35.9535 6.88905 36.8814 6.92092 37.754 7.09091C39.8523 7.5026 40.9384 8.9767 41.2626 10.9953C41.4735 12.318 41.4761 13.6779 41.5367 15.0218C41.5578 15.4999 41.368 15.6274 40.8039 15.6274C38.3603 15.6301 35.9166 15.6301 33.473 15.6301C33.2911 15.6301 33.1065 15.6301 32.9299 15.6301ZM38.6819 13.1334C38.7873 11.4548 38.413 10.2383 37.5721 9.84522C36.4017 9.29542 35.1891 9.31401 34.1056 10.0418C33.0354 10.7616 32.9589 11.9488 32.8614 13.1334C34.8411 13.1334 36.7443 13.1334 38.6819 13.1334Z" fill="white"/>
<path d="M72.2602 15.6301C72.421 16.3074 72.5027 16.9183 72.7163 17.4761C73.138 18.5916 74.0554 19.0936 75.1784 19.067C76.6177 19.0325 78.0596 18.8917 79.4936 18.7456C80.1895 18.6739 80.3398 18.7509 80.3424 19.4521C80.3451 19.8293 80.3873 20.2118 80.324 20.5783C80.2897 20.7802 80.1105 21.067 79.9391 21.1201C77.8856 21.7523 75.7847 21.9382 73.6758 21.4973C71.9755 21.1414 70.7418 20.1029 70.1487 18.4535C69.1734 15.7417 69.1707 12.9688 70.1092 10.2543C70.8183 8.19852 72.4237 7.17064 74.5325 6.96081C75.2548 6.8891 76.0008 6.88644 76.7178 6.99003C79.0718 7.33265 80.4373 8.72973 80.7774 11.2184C80.9514 12.4854 80.9382 13.7789 80.9988 15.0591C81.0226 15.5637 80.6825 15.6328 80.2844 15.6301C77.8276 15.6274 75.3708 15.6275 72.9113 15.6275C72.7268 15.6301 72.5476 15.6301 72.2602 15.6301ZM72.2576 13.1202C74.3032 13.1202 76.2328 13.1202 78.2178 13.1202C78.1598 12.5518 78.1413 12.0206 78.0464 11.5C77.8118 10.1985 77.2371 9.65668 75.9349 9.53716C75.4789 9.49467 74.9991 9.5292 74.5483 9.61419C73.6231 9.78949 72.9667 10.3473 72.6794 11.253C72.4896 11.8399 72.4026 12.4615 72.2576 13.1202Z" fill="white"/>
<path d="M58.2837 7.92761C59.209 7.60889 60.0842 7.22642 60.9963 7.01394C62.085 6.75896 63.1974 6.8652 64.2676 7.21314C65.9125 7.747 66.8563 8.9794 66.9828 10.7164C67.0039 10.998 67.0144 11.2795 67.0144 11.5637C67.0171 14.5916 67.0171 17.6195 67.0171 20.6447C67.0171 21.3432 66.9195 21.4362 66.2368 21.4389C65.786 21.4415 65.3352 21.4442 64.8818 21.4362C64.3704 21.4309 64.2254 21.2795 64.207 20.7616C64.2044 20.6686 64.207 20.573 64.207 20.48C64.207 17.5159 64.207 14.5518 64.207 11.5876C64.207 11.3831 64.2044 11.1786 64.1912 10.9767C64.1385 10.2012 63.78 9.74434 63.0181 9.60888C61.8029 9.39374 60.6061 9.49202 59.441 9.94354C59.0719 10.087 58.9375 10.2809 58.9401 10.6979C58.9612 13.9913 58.9506 17.2848 58.9506 20.5783C58.9506 21.3592 58.8689 21.4389 58.0939 21.4389C57.659 21.4389 57.2214 21.4309 56.7864 21.4415C56.3647 21.4495 56.1485 21.2689 56.1485 20.828C56.1511 16.4668 56.1511 12.1082 56.1485 7.747C56.1485 7.35656 56.3515 7.1733 56.7205 7.1547C56.8919 7.14674 57.0632 7.16533 57.2346 7.14674C57.7539 7.09096 58.1203 7.24767 58.2284 7.81606C58.2415 7.88777 58.2969 7.95152 58.2837 7.92761Z" fill="white"/>
<path d="M44.1016 10.9422C44.1016 7.72571 44.1016 4.51191 44.1016 1.29545C44.1016 0.615505 44.215 0.498639 44.8845 0.495983C45.3353 0.493327 45.7861 0.498639 46.2395 0.498639C46.6375 0.498639 46.8511 0.681905 46.8484 1.09625C46.8458 1.23702 46.8511 1.37779 46.8511 1.51856C46.8511 7.83992 46.8511 14.1613 46.8511 20.4826C46.8511 21.3884 46.7983 21.4388 45.9021 21.4388C45.5752 21.4388 45.2483 21.4388 44.9214 21.4388C44.2044 21.4388 44.1043 21.3405 44.1043 20.634C44.1043 17.8744 44.1043 15.1121 44.1043 12.3525C44.1016 11.8824 44.1016 11.4123 44.1016 10.9422Z" fill="white"/>
<path d="M52.9984 14.2888C52.9984 16.3897 52.9984 18.4906 52.9984 20.5916C52.9984 21.3591 52.922 21.4362 52.1786 21.4388C51.7753 21.4388 51.3693 21.4415 50.966 21.4388C50.3834 21.4335 50.2622 21.314 50.2622 20.7111C50.2595 17.9036 50.2622 15.0962 50.2622 12.2914C50.2622 10.8333 50.2622 9.37512 50.2622 7.91695C50.2622 7.28482 50.3966 7.15733 51.0345 7.15202C51.4089 7.14936 51.7805 7.14936 52.1549 7.15202C52.8903 7.15467 53.001 7.26091 53.001 7.98601C52.9984 10.0869 52.9984 12.1879 52.9984 14.2888Z" fill="white"/>
<path d="M51.654 4.30474C50.7471 4.31536 50.0512 3.62479 50.0512 2.71112C50.0486 1.81869 50.7261 1.12546 51.6065 1.11218C52.5001 1.0989 53.2198 1.81072 53.2198 2.70846C53.2172 3.59026 52.5265 4.29677 51.654 4.30474Z" fill="white"/>
</svg>
