<svg width="55" height="55" viewBox="0 0 55 55" fill="none" xmlns="http://www.w3.org/2000/svg">
<!-- <path d="M81.1609 8.61328H84.2071V17.5476C84.2071 18.3653 84.0913 19.1013 83.8596 19.7556C83.6279 20.4098 83.3144 20.9481 82.9191 21.3707C82.5239 21.7932 82.0536 22.1476 81.5084 22.4338C80.9633 22.72 80.3908 22.9176 79.7911 23.0267C79.205 23.1493 78.5849 23.2107 77.9307 23.2107C77.2764 23.2107 76.6495 23.1493 76.0498 23.0267C75.4637 22.9176 74.8981 22.72 74.3529 22.4338C73.8077 22.1476 73.3375 21.7932 72.9422 21.3707C72.547 20.9481 72.2335 20.4098 72.0018 19.7556C71.7701 19.1013 71.6542 18.3653 71.6542 17.5476V8.61328H74.7209V17.384C74.7209 19.4284 75.7908 20.4507 77.9307 20.4507C80.0841 20.4507 81.1609 19.4284 81.1609 17.384V8.61328Z" fill="#030096"/>
<path d="M86.4969 12.3956C86.4969 11.0735 86.9944 10.0649 87.9893 9.36982C88.9843 8.67471 90.2314 8.32715 91.7307 8.32715C93.5298 8.32715 95.0767 8.69515 96.3716 9.43115V12.2933C95.1585 11.421 93.6865 10.9985 91.9556 11.0258C90.4018 11.053 89.6249 11.496 89.6249 12.3547C89.6249 12.7363 89.8157 13.0702 90.1973 13.3564C90.5926 13.6427 91.0764 13.8744 91.6489 14.0516C92.235 14.2151 92.8619 14.4332 93.5298 14.7058C94.2113 14.9647 94.8382 15.251 95.4107 15.5644C95.9967 15.8643 96.4806 16.3141 96.8622 16.9138C97.2575 17.5135 97.4551 18.2086 97.4551 18.9991C97.4551 19.776 97.3052 20.4439 97.0053 21.0027C96.7191 21.5615 96.3102 21.9976 95.7787 22.3111C95.2471 22.6246 94.661 22.8495 94.0204 22.9858C93.3799 23.1357 92.6643 23.2107 91.8738 23.2107C89.8839 23.2107 88.1188 22.7813 86.5787 21.9227V18.9991C88.1052 20.0077 89.7953 20.512 91.6489 20.512C93.4344 20.512 94.3271 20.0554 94.3271 19.1422C94.3271 18.7333 94.1295 18.379 93.7342 18.0791C93.3526 17.7656 92.8687 17.5203 92.2827 17.3431C91.7102 17.1523 91.0833 16.9274 90.4018 16.6684C89.7339 16.3959 89.107 16.1096 88.5209 15.8098C87.9484 15.4963 87.4646 15.0465 87.0693 14.4604C86.6877 13.8744 86.4969 13.1861 86.4969 12.3956Z" fill="#030096"/>
<path d="M98.8953 12.3956C98.8953 11.0735 99.3928 10.0649 100.388 9.36982C101.383 8.67471 102.63 8.32715 104.129 8.32715C105.928 8.32715 107.475 8.69515 108.77 9.43115V12.2933C107.557 11.421 106.085 10.9985 104.354 11.0258C102.8 11.053 102.023 11.496 102.023 12.3547C102.023 12.7363 102.214 13.0702 102.596 13.3564C102.991 13.6427 103.475 13.8744 104.047 14.0516C104.633 14.2151 105.26 14.4332 105.928 14.7058C106.61 14.9647 107.237 15.251 107.809 15.5644C108.395 15.8643 108.879 16.3141 109.261 16.9138C109.656 17.5135 109.854 18.2086 109.854 18.9991C109.854 19.776 109.704 20.4439 109.404 21.0027C109.118 21.5615 108.709 21.9976 108.177 22.3111C107.646 22.6246 107.059 22.8495 106.419 22.9858C105.778 23.1357 105.063 23.2107 104.272 23.2107C102.282 23.2107 100.517 22.7813 98.9771 21.9227V18.9991C100.504 20.0077 102.194 20.512 104.047 20.512C105.833 20.512 106.726 20.0554 106.726 19.1422C106.726 18.7333 106.528 18.379 106.133 18.0791C105.751 17.7656 105.267 17.5203 104.681 17.3431C104.109 17.1523 103.482 16.9274 102.8 16.6684C102.132 16.3959 101.505 16.1096 100.919 15.8098C100.347 15.4963 99.863 15.0465 99.4678 14.4604C99.0861 13.8744 98.8953 13.1861 98.8953 12.3956Z" fill="#030096"/>
<path d="M111.928 8.61328H117.284C119.737 8.61328 121.598 9.26751 122.865 10.576C124.147 11.8708 124.787 13.6018 124.787 15.7689C124.787 17.936 124.147 19.6738 122.865 20.9822C121.598 22.277 119.737 22.9244 117.284 22.9244H111.928V8.61328ZM120.535 19.1013C121.284 18.3517 121.659 17.2409 121.659 15.7689C121.659 14.2969 121.284 13.1861 120.535 12.4364C119.799 11.6868 118.715 11.312 117.284 11.312H114.994V20.2258H117.284C118.715 20.2258 119.799 19.851 120.535 19.1013Z" fill="#030096"/>
<path d="M134.148 22.9245H131.306V13.1112H133.821V14.2561C134.134 13.8881 134.564 13.561 135.109 13.2748C135.654 12.9749 136.267 12.825 136.949 12.825C138.298 12.825 139.3 13.3088 139.954 14.2765C140.949 13.3088 142.039 12.825 143.225 12.825C144.479 12.825 145.399 13.2202 145.985 14.0108C146.585 14.7877 146.885 15.6872 146.885 16.7094V22.9245H144.063V16.8934C144.063 16.3891 143.92 15.9939 143.634 15.7077C143.362 15.4214 142.994 15.2783 142.53 15.2783C141.808 15.2783 141.16 15.6054 140.588 16.2597C140.602 16.3551 140.608 16.505 140.608 16.7094V22.9245H137.787V16.8934C137.787 16.3891 137.644 15.9939 137.358 15.7077C137.085 15.4214 136.717 15.2783 136.254 15.2783C135.45 15.2783 134.748 15.6736 134.148 16.4641V22.9245Z" fill="#030096"/>
<path d="M150.217 21.841C149.168 20.9278 148.643 19.6534 148.643 18.0179C148.643 16.3823 149.168 15.108 150.217 14.1948C151.267 13.2816 152.548 12.825 154.061 12.825C155.587 12.825 156.869 13.2816 157.904 14.1948C158.954 15.108 159.479 16.3823 159.479 18.0179C159.479 19.6534 158.954 20.9278 157.904 21.841C156.869 22.7542 155.587 23.2108 154.061 23.2108C152.548 23.2108 151.267 22.7542 150.217 21.841ZM155.921 19.9397C156.371 19.4354 156.596 18.7948 156.596 18.0179C156.596 17.241 156.371 16.6072 155.921 16.1165C155.471 15.6122 154.851 15.3601 154.061 15.3601C153.27 15.3601 152.65 15.6122 152.2 16.1165C151.764 16.6072 151.546 17.241 151.546 18.0179C151.546 18.7948 151.764 19.4354 152.2 19.9397C152.65 20.4303 153.27 20.6757 154.061 20.6757C154.851 20.6757 155.471 20.4303 155.921 19.9397Z" fill="#030096"/>
<path d="M161.334 8.61328H164.176V14.1538C164.953 13.2679 166.029 12.8249 167.406 12.8249C168.892 12.8249 170.057 13.336 170.902 14.3582C171.761 15.3668 172.19 16.5867 172.19 18.0178C172.19 19.4489 171.761 20.6756 170.902 21.6978C170.057 22.7064 168.892 23.2107 167.406 23.2107C165.839 23.2107 164.653 22.6382 163.849 21.4933V22.9244H161.334V8.61328ZM168.592 20.0213C169.055 19.4761 169.287 18.8083 169.287 18.0178C169.287 17.2273 169.055 16.5662 168.592 16.0347C168.128 15.4895 167.501 15.2169 166.711 15.2169C166.125 15.2169 165.6 15.3736 165.137 15.6871C164.687 16.0006 164.36 16.389 164.155 16.8524V19.1831C164.36 19.6465 164.687 20.035 165.137 20.3484C165.6 20.6619 166.125 20.8187 166.711 20.8187C167.501 20.8187 168.128 20.5529 168.592 20.0213Z" fill="#030096"/>
<path d="M176.914 22.9244H174.072V13.1111H176.914V22.9244ZM177.159 9.86041C177.159 10.392 177.003 10.7941 176.689 11.0667C176.376 11.3393 175.974 11.4756 175.483 11.4756C175.006 11.4756 174.611 11.3393 174.297 11.0667C173.984 10.7941 173.827 10.392 173.827 9.86041C173.827 9.34249 173.984 8.94723 174.297 8.67464C174.611 8.40204 175.006 8.26575 175.483 8.26575C175.96 8.26575 176.355 8.40204 176.669 8.67464C176.996 8.94723 177.159 9.34249 177.159 9.86041Z" fill="#030096"/>
<path d="M179.403 8H182.245V22.9244H179.403V8Z" fill="#030096"/>
<path d="M184.141 18.0179C184.141 17.132 184.298 16.3482 184.612 15.6668C184.925 14.9717 185.334 14.4265 185.838 14.0312C186.356 13.636 186.895 13.3361 187.453 13.1317C188.026 12.9272 188.605 12.825 189.191 12.825C190.172 12.825 191.017 13.009 191.726 13.377C192.449 13.745 192.98 14.222 193.321 14.8081C193.662 15.3805 193.893 16.0348 194.016 16.7708C194.152 17.4931 194.118 18.2155 193.914 18.9379H187.004C187.153 19.6194 187.549 20.1305 188.189 20.4712C188.83 20.7983 189.586 20.9619 190.459 20.9619C191.535 20.9619 192.524 20.7642 193.423 20.369V22.5974C192.455 23.0063 191.256 23.2108 189.825 23.2108C188.189 23.2108 186.833 22.7542 185.756 21.841C184.68 20.9278 184.141 19.6534 184.141 18.0179ZM191.358 17.0979C191.426 16.6481 191.297 16.1847 190.97 15.7077C190.643 15.2306 190.084 14.9921 189.293 14.9921C188.666 14.9921 188.128 15.1829 187.678 15.5645C187.228 15.9325 186.997 16.4437 186.983 17.0979H191.358Z" fill="#030096"/>
<path d="M74.0667 26.8089H76.3564C75.5932 28.131 74.9935 29.6234 74.5573 31.2862C74.1212 32.9354 73.9031 34.5778 73.9031 36.2133C73.9031 37.8489 74.1212 39.4981 74.5573 41.1609C74.9935 42.8101 75.5932 44.2957 76.3564 45.6178H74.0667C73.1262 44.2957 72.3766 42.8033 71.8178 41.1404C71.2726 39.4776 71 37.8353 71 36.2133C71 34.5914 71.2726 32.949 71.8178 31.2862C72.3766 29.6234 73.1262 28.131 74.0667 26.8089Z" fill="#030096"/>
<path d="M87.3302 29.0578H90.3764V37.992C90.3764 38.8098 90.2605 39.5458 90.0288 40.2C89.7971 40.8542 89.4836 41.3926 89.0884 41.8151C88.6931 42.2376 88.2229 42.592 87.6777 42.8782C87.1325 43.1644 86.5601 43.3621 85.9604 43.4711C85.3743 43.5938 84.7542 43.6551 84.0999 43.6551C83.4457 43.6551 82.8188 43.5938 82.219 43.4711C81.633 43.3621 81.0673 43.1644 80.5222 42.8782C79.977 42.592 79.5068 42.2376 79.1115 41.8151C78.7162 41.3926 78.4028 40.8542 78.171 40.2C77.9393 39.5458 77.8235 38.8098 77.8235 37.992V29.0578H80.8902V37.8284C80.8902 39.8729 81.9601 40.8951 84.0999 40.8951C86.2534 40.8951 87.3302 39.8729 87.3302 37.8284V29.0578Z" fill="#030096"/>
<path d="M92.4066 33.5556H100.4V35.3956L95.8004 40.9973H100.728V43.3689H92.1408V41.5289L96.7408 35.9067H92.4066V33.5556Z" fill="#030096"/>
<path d="M102.576 29.0578H105.418V34.5982C106.195 33.7123 107.272 33.2693 108.648 33.2693C110.134 33.2693 111.299 33.7804 112.144 34.8027C113.003 35.8113 113.432 37.0311 113.432 38.4622C113.432 39.8933 113.003 41.12 112.144 42.1422C111.299 43.1508 110.134 43.6551 108.648 43.6551C107.081 43.6551 105.895 43.0827 105.091 41.9378V43.3689H102.576V29.0578ZM109.834 40.4658C110.297 39.9206 110.529 39.2527 110.529 38.4622C110.529 37.6717 110.297 37.0107 109.834 36.4791C109.37 35.9339 108.744 35.6613 107.953 35.6613C107.367 35.6613 106.842 35.8181 106.379 36.1316C105.929 36.445 105.602 36.8335 105.397 37.2969V39.6276C105.602 40.091 105.929 40.4794 106.379 40.7929C106.842 41.1064 107.367 41.2631 107.953 41.2631C108.744 41.2631 109.37 40.9973 109.834 40.4658Z" fill="#030096"/>
<path d="M114.742 38.4622C114.742 37.5763 114.899 36.7926 115.212 36.1111C115.526 35.416 115.935 34.8708 116.439 34.4756C116.957 34.0803 117.495 33.7804 118.054 33.576C118.626 33.3716 119.206 33.2693 119.792 33.2693C120.773 33.2693 121.618 33.4533 122.327 33.8213C123.049 34.1893 123.581 34.6664 123.922 35.2524C124.262 35.8249 124.494 36.4791 124.617 37.2151C124.753 37.9375 124.719 38.6599 124.514 39.3822H117.604C117.754 40.0637 118.149 40.5748 118.79 40.9156C119.431 41.2427 120.187 41.4062 121.059 41.4062C122.136 41.4062 123.124 41.2086 124.024 40.8133V43.0418C123.056 43.4507 121.857 43.6551 120.426 43.6551C118.79 43.6551 117.434 43.1985 116.357 42.2853C115.28 41.3722 114.742 40.0978 114.742 38.4622ZM121.959 37.5422C122.027 37.0924 121.898 36.629 121.57 36.152C121.243 35.675 120.685 35.4364 119.894 35.4364C119.267 35.4364 118.729 35.6273 118.279 36.0089C117.829 36.3769 117.597 36.888 117.584 37.5422H121.959Z" fill="#030096"/>
<path d="M136.472 43.3689H133.283L130.461 39.4844H129.316V43.3689H126.475V29.0578H129.316V37.2151H130.502L132.996 33.5556H136.186L132.812 38.4009L136.472 43.3689Z" fill="#030096"/>
<path d="M140.517 43.3689H137.676V33.5556H140.517V43.3689ZM140.763 30.3049C140.763 30.8364 140.606 31.2385 140.292 31.5111C139.979 31.7837 139.577 31.92 139.086 31.92C138.609 31.92 138.214 31.7837 137.9 31.5111C137.587 31.2385 137.43 30.8364 137.43 30.3049C137.43 29.787 137.587 29.3917 137.9 29.1191C138.214 28.8465 138.609 28.7102 139.086 28.7102C139.563 28.7102 139.959 28.8465 140.272 29.1191C140.599 29.3917 140.763 29.787 140.763 30.3049Z" fill="#030096"/>
<path d="M142.537 36.2951C142.537 35.2456 142.925 34.4824 143.702 34.0053C144.479 33.5147 145.453 33.2693 146.625 33.2693C147.893 33.2693 149.099 33.5487 150.244 34.1076V36.4382C149.822 36.152 149.283 35.9135 148.629 35.7227C147.988 35.5319 147.382 35.4364 146.809 35.4364C145.896 35.4364 145.44 35.6954 145.44 36.2133C145.44 36.5132 145.63 36.7585 146.012 36.9493C146.394 37.1402 146.857 37.3105 147.402 37.4604C147.948 37.5967 148.486 37.7671 149.017 37.9716C149.563 38.176 150.026 38.5031 150.408 38.9529C150.789 39.4027 150.98 39.9615 150.98 40.6293C150.98 41.3653 150.762 41.965 150.326 42.4284C149.903 42.8919 149.372 43.2121 148.731 43.3893C148.104 43.5665 147.368 43.6551 146.523 43.6551C144.956 43.6551 143.654 43.3484 142.618 42.7351V40.384C143.681 41.0791 144.929 41.4267 146.36 41.4267C147.505 41.4267 148.077 41.1813 148.077 40.6907C148.077 40.4044 147.886 40.1659 147.505 39.9751C147.123 39.7843 146.66 39.6139 146.114 39.464C145.583 39.3141 145.044 39.1369 144.499 38.9324C143.954 38.7144 143.491 38.3873 143.109 37.9511C142.727 37.5013 142.537 36.9493 142.537 36.2951Z" fill="#030096"/>
<path d="M153.445 30.6933L156.266 30.0187V33.5556H159.374V35.9476H156.266V39.7911C156.266 40.7724 156.791 41.2631 157.84 41.2631C158.467 41.2631 159.06 41.1541 159.619 40.936V43.2258C158.801 43.512 157.922 43.6551 156.982 43.6551C155.946 43.6551 155.094 43.3893 154.426 42.8578C153.772 42.3262 153.445 41.488 153.445 40.3431V35.9476H151.789V33.5556H153.445V30.6933Z" fill="#030096"/>
<path d="M170.025 40.8338C170.025 41.2699 170.256 41.488 170.72 41.488C170.911 41.488 171.088 41.4607 171.251 41.4062V43.2667C170.733 43.4575 170.209 43.5529 169.677 43.5529C168.641 43.5529 167.919 43.1849 167.51 42.4489C166.488 43.253 165.309 43.6551 163.973 43.6551C163.005 43.6551 162.188 43.3893 161.52 42.8578C160.866 42.3126 160.539 41.5766 160.539 40.6498C160.539 39.8729 160.77 39.2255 161.234 38.7076C161.697 38.1896 162.235 37.8421 162.849 37.6649C163.462 37.4741 164.13 37.3787 164.852 37.3787C165.656 37.3787 166.433 37.4673 167.183 37.6444V37.2969C167.183 36.7926 166.985 36.3905 166.59 36.0907C166.195 35.7908 165.622 35.6409 164.873 35.6409C163.782 35.6409 162.624 35.8862 161.397 36.3769V33.9236C162.706 33.4874 163.973 33.2693 165.2 33.2693C168.416 33.2693 170.025 34.7481 170.025 37.7058V40.8338ZM165.507 39.0756C164.92 39.0756 164.43 39.1846 164.035 39.4027C163.639 39.6207 163.442 39.9615 163.442 40.4249C163.442 40.7793 163.585 41.0723 163.871 41.304C164.171 41.5221 164.539 41.6311 164.975 41.6311C165.834 41.6311 166.57 41.3653 167.183 40.8338V39.3004C166.556 39.1505 165.997 39.0756 165.507 39.0756Z" fill="#030096"/>
<path d="M175.109 34.8027C175.995 33.7804 177.085 33.2693 178.38 33.2693C179.634 33.2693 180.609 33.651 181.304 34.4142C182.012 35.1639 182.367 36.1247 182.367 37.2969V43.3689H179.525V37.6649C179.525 37.0243 179.348 36.5404 178.993 36.2133C178.653 35.8862 178.196 35.7227 177.624 35.7227C176.738 35.7227 176.009 36.1384 175.436 36.9698V43.3689H172.594V33.5556H175.109V34.8027Z" fill="#030096"/> -->
<!-- <path d="M183.415 26.8089H185.705C186.646 28.131 187.388 29.6234 187.934 31.2862C188.492 32.949 188.772 34.5914 188.772 36.2133C188.772 37.8353 188.492 39.4776 187.934 41.1404C187.388 42.8033 186.646 44.2957 185.705 45.6178H183.415C184.179 44.2957 184.778 42.8101 185.214 41.1609C185.651 39.4981 185.869 37.8489 185.869 36.2133C185.869 34.5778 185.651 32.9354 185.214 31.2862C184.778 29.6234 184.179 28.131 183.415 26.8089Z" fill="#030096"/> -->
<path d="M8.66721 17.816C8.6682 16.7319 9.49964 15.8549 10.5233 15.8559L25.963 15.8707V0H12.6193C5.64964 0 0 5.64964 0 12.6193V25.9144H8.66126L8.66721 17.816Z" fill="#00AFF0"/>
<path d="M10.5035 39.2006C9.47982 39.1996 8.65036 38.3196 8.65135 37.2365L8.65829 28.9875H0V42.3817C0 49.3504 5.64964 55 12.6193 55H25.964V39.2165L10.5035 39.2006Z" fill="#FD5009"/>
<path d="M21.4088 44.0044C21.6129 44.0044 21.7966 44.0044 21.9887 44.0044C21.9989 44.0616 22.0087 44.1157 22.0194 44.1765C22.4174 43.8629 22.7927 43.8363 23.1498 44.2231C23.2316 44.1588 23.3139 44.0687 23.4153 44.0177C23.8756 43.7871 24.3367 44.0364 24.3554 44.5469C24.3781 45.1656 24.3607 45.7852 24.3607 46.4217C24.1513 46.4217 23.9498 46.4217 23.7235 46.4217C23.7235 45.9076 23.7248 45.4002 23.7226 44.8933C23.7221 44.7904 23.7324 44.6782 23.6941 44.5881C23.6599 44.5074 23.5652 44.397 23.4998 44.3987C23.4131 44.4014 23.3006 44.4826 23.2521 44.5624C23.2036 44.6422 23.2098 44.7611 23.2094 44.8631C23.2058 45.3785 23.2076 45.8939 23.2076 46.4239C22.9937 46.4239 22.7976 46.4239 22.5739 46.4239C22.5699 46.3498 22.5628 46.2727 22.5623 46.1955C22.561 45.7449 22.5628 45.2947 22.5606 44.844C22.5601 44.7487 22.569 44.6422 22.5303 44.5611C22.4956 44.4879 22.4014 44.3961 22.3342 44.397C22.2528 44.3978 22.1341 44.4697 22.1003 44.5424C22.0505 44.6502 22.0492 44.7859 22.0478 44.9097C22.0429 45.41 22.0456 45.9107 22.0456 46.4248C21.8246 46.4248 21.6227 46.4248 21.4083 46.4248C21.4088 45.6184 21.4088 44.8241 21.4088 44.0044Z" fill="white"/>
<path d="M7.32265 42.9501C7.81272 42.9501 8.29968 42.9244 8.78218 42.959C9.12728 42.9834 9.35097 43.2247 9.3901 43.5671C9.42212 43.8483 9.40789 44.1393 9.37765 44.4218C9.34341 44.7394 9.12639 44.9168 8.81999 44.966C8.56695 45.0068 8.30902 45.0201 8.02752 45.0481C8.02752 45.4987 8.02752 45.9515 8.02752 46.4155C7.78204 46.4155 7.5628 46.4155 7.32265 46.4155C7.32265 45.2565 7.32265 44.0971 7.32265 42.9501ZM8.03908 44.5007C8.27611 44.467 8.54293 44.573 8.65322 44.3056C8.75328 44.0643 8.77863 43.7858 8.60964 43.5649C8.46822 43.3808 8.24098 43.4434 8.03908 43.4504C8.03908 43.8097 8.03908 44.1393 8.03908 44.5007Z" fill="white"/>
<path d="M19.4401 44.0084C19.6468 44.0084 19.8425 44.0084 20.0666 44.0084C20.0666 44.334 20.0662 44.6493 20.0666 44.9647C20.0671 45.2233 20.064 45.4818 20.0702 45.7404C20.0738 45.8939 20.0987 46.0518 20.3014 46.0549C20.502 46.058 20.5709 45.9156 20.5736 45.7457C20.5816 45.2583 20.5789 44.7704 20.5807 44.283C20.5812 44.196 20.5807 44.1095 20.5807 44.0102C20.8 44.0102 20.9974 44.0102 21.2127 44.0102C21.2127 44.809 21.2127 45.6096 21.2127 46.4248C21.0263 46.4248 20.844 46.4248 20.6408 46.4248C20.6314 46.3751 20.6203 46.3157 20.6079 46.2487C20.5825 46.2602 20.5634 46.2678 20.5451 46.2771C20.402 46.3467 20.265 46.4519 20.1142 46.4789C19.746 46.5446 19.4685 46.3689 19.4498 46.0065C19.416 45.3457 19.4401 44.6821 19.4401 44.0084Z" fill="white"/>
<path d="M15.9349 45.3301C15.5422 45.3301 15.1811 45.3301 14.7764 45.3301C14.7906 45.5399 14.7822 45.7386 14.8271 45.9245C14.8458 46.0008 14.9819 46.1006 15.0597 46.0966C15.1388 46.0926 15.2336 45.9857 15.2811 45.9014C15.3198 45.8327 15.2998 45.7302 15.3065 45.6278C15.5142 45.6278 15.7165 45.6278 15.9175 45.6278C15.9802 46.0731 15.7605 46.3804 15.3234 46.466C15.2509 46.4802 15.1762 46.4833 15.1024 46.4882C14.4433 46.5304 14.1422 46.262 14.1382 45.6078C14.136 45.2689 14.1391 44.9274 14.1827 44.5925C14.2374 44.1725 14.4789 43.9787 14.9036 43.9512C14.9329 43.9494 14.9627 43.9485 14.9925 43.9481C15.6765 43.9343 15.8886 44.1237 15.9331 44.7988C15.9442 44.9656 15.9349 45.1341 15.9349 45.3301ZM14.7737 44.9483C14.9654 44.9483 15.1224 44.9483 15.3043 44.9483C15.2923 44.7877 15.3052 44.6356 15.2611 44.5021C15.2376 44.4298 15.1193 44.3522 15.0388 44.3464C14.9707 44.3415 14.8542 44.424 14.8324 44.491C14.7875 44.6316 14.7911 44.7873 14.7737 44.9483Z" fill="white"/>
<path d="M11.1916 45.3284C10.7972 45.3284 10.424 45.3284 10.0242 45.3284C10.0327 45.5213 10.0345 45.689 10.0492 45.8553C10.0625 46.0026 10.1336 46.1125 10.2995 46.1081C10.4627 46.1037 10.5303 45.9972 10.5419 45.8464C10.5472 45.7808 10.5512 45.7151 10.5575 45.6309C10.7625 45.6309 10.9639 45.6309 11.1658 45.6309C11.2321 45.9923 11.0698 46.3011 10.7309 46.4164C10.5935 46.4634 10.4423 46.4825 10.2964 46.4891C9.70628 46.5157 9.43056 46.2979 9.39899 45.7094C9.37676 45.2942 9.41811 44.8724 9.46748 44.4577C9.49905 44.1925 9.69828 44.0435 9.95932 43.9796C10.7607 43.7835 11.1752 44.0949 11.1912 44.9115C11.1938 45.0419 11.1916 45.1731 11.1916 45.3284ZM10.5526 44.9523C10.5192 44.738 10.613 44.5118 10.4098 44.3668C10.3547 44.3273 10.2168 44.3309 10.1634 44.3734C9.97444 44.5238 10.0443 44.7425 10.0363 44.9523C10.2066 44.9523 10.3587 44.9523 10.5526 44.9523Z" fill="white"/>
<path d="M17.1765 45.5391C17.3864 45.5391 17.5772 45.5391 17.7662 45.5391C17.904 45.9977 17.6492 46.411 17.1885 46.4727C17.0577 46.4904 16.9221 46.4909 16.79 46.4798C16.4129 46.4479 16.1794 46.2647 16.1501 45.8948C16.1145 45.4477 16.1136 44.9935 16.1505 44.5469C16.1821 44.1663 16.4214 43.9845 16.8083 43.953C16.8892 43.9463 16.9715 43.9454 17.0524 43.949C17.5927 43.9725 17.8582 44.2998 17.7813 44.8786C17.6848 44.8786 17.5843 44.8786 17.4833 44.8786C17.3877 44.8786 17.2921 44.8786 17.1827 44.8786C17.1689 44.7593 17.1756 44.6449 17.1378 44.5473C17.1116 44.4795 17.0248 44.3943 16.963 44.393C16.9034 44.3916 16.79 44.4857 16.7887 44.5407C16.7758 44.9971 16.778 45.4539 16.7923 45.9099C16.794 45.9626 16.8999 46.058 16.9492 46.0531C17.0186 46.046 17.1142 45.9751 17.1373 45.9099C17.176 45.8043 17.1649 45.6801 17.1765 45.5391Z" fill="white"/>
<path d="M13.7349 46.4288C13.5001 46.4288 13.3031 46.4288 13.0821 46.4288C13.0821 45.7679 13.0821 45.115 13.0821 44.4462C12.9673 44.4378 12.8744 44.4311 12.7619 44.4227C12.7619 44.2905 12.7619 44.1566 12.7619 44.0093C12.8548 44.0022 12.9482 43.9956 13.0558 43.9871C13.1176 43.6483 12.9744 43.238 13.3413 42.9985C13.5637 42.8534 13.8203 42.877 14.0822 42.9235C14.0822 43.053 14.0822 43.1763 14.0822 43.2992C13.7029 43.3981 13.6793 43.4456 13.7469 43.9849C13.8505 43.992 13.9577 43.9995 14.0786 44.008C14.0786 44.1437 14.0786 44.2728 14.0786 44.4218C13.9724 44.4276 13.8652 44.4333 13.7344 44.4409C13.7349 45.0973 13.7349 45.7497 13.7349 46.4288Z" fill="white"/>
<path d="M18.2078 44.4395C18.0761 44.4333 17.9819 44.4289 17.8751 44.424C17.8751 44.2839 17.8751 44.1548 17.8751 44.0102C17.9783 44.0018 18.0784 43.9938 18.2064 43.9836C18.0792 43.4513 18.5515 43.5219 18.8441 43.3276C18.8441 43.5737 18.8441 43.7742 18.8441 43.992C18.9873 43.992 19.103 43.992 19.2355 43.992C19.2355 44.1384 19.2355 44.2674 19.2355 44.4213C19.1216 44.4213 19.0002 44.4213 18.8584 44.4213C18.8584 44.9301 18.8441 45.4153 18.8646 45.8992C18.8744 46.1272 19.087 46.0252 19.235 46.0518C19.235 46.1826 19.235 46.3161 19.235 46.4665C19.1359 46.4745 19.0416 46.4847 18.9473 46.4891C18.4363 46.5135 18.2224 46.3228 18.21 45.807C18.1993 45.3581 18.2078 44.9088 18.2078 44.4395Z" fill="white"/>
<path d="M2.79241 45.1922C2.79241 44.9682 2.77507 44.7429 2.79597 44.5211C2.83422 44.1184 2.95028 43.7299 3.20866 43.4159C3.35764 43.2349 3.55909 43.0717 3.77077 42.9741C4.07317 42.8348 4.44673 43.0189 4.58859 43.3196C4.72867 43.6159 4.63662 43.9419 4.34 44.1268C4.21726 44.2036 4.07228 44.2484 3.93264 44.2927C3.4488 44.4466 3.037 44.6835 2.86446 45.206C2.84044 45.2015 2.81643 45.1966 2.79241 45.1922Z" fill="white"/>
<path d="M6.79656 44.2049C6.79656 44.3934 6.80901 44.5824 6.79434 44.7695C6.75476 45.2743 6.60222 45.7404 6.26247 46.1281C5.94094 46.4953 5.52069 46.5681 5.19917 46.3246C4.83629 46.05 4.83807 45.5506 5.20851 45.2876C5.29167 45.2286 5.38728 45.1776 5.48467 45.1505C6.02988 45.0006 6.51728 44.7793 6.72407 44.1836C6.74853 44.1912 6.77255 44.1978 6.79656 44.2049Z" fill="white"/>
<path d="M4.33289 42.727C4.69666 42.6357 5.09334 42.6973 5.48157 42.8224C5.85245 42.9422 6.19043 43.12 6.41901 43.4536C6.58755 43.6997 6.6218 43.9592 6.46615 44.2226C6.32696 44.4582 6.11394 44.5815 5.83778 44.554C5.52915 44.5229 5.3615 44.3176 5.25521 44.0457C5.15604 43.7933 5.08933 43.5156 4.9368 43.2996C4.77804 43.0761 4.53389 42.9124 4.33289 42.727Z" fill="white"/>
<path d="M5.29879 46.6173C5.28945 46.639 5.28856 46.6479 5.28455 46.6492C4.64106 46.8932 3.43546 46.4532 3.1086 45.8557C2.91293 45.4983 3.04901 45.072 3.41367 44.8986C3.74853 44.7389 4.12342 44.8955 4.28796 45.2663C4.32087 45.3404 4.34578 45.418 4.3689 45.496C4.51788 46.0034 4.75046 46.443 5.29879 46.6173Z" fill="white"/>
<path d="M11.3806 44.0044C11.5829 44.0044 11.7648 44.0044 11.9592 44.0044C11.9685 44.0869 11.9774 44.1628 11.9819 44.2005C12.178 44.1056 12.379 44.008 12.6191 43.8918C12.6191 44.1286 12.6191 44.2945 12.6191 44.4759C12.5804 44.4786 12.5457 44.4817 12.5111 44.483C12.1446 44.4985 12.017 44.6165 12.0085 44.9811C11.9988 45.3936 12.0059 45.8065 12.005 46.2194C12.005 46.2842 11.9992 46.349 11.9961 46.4257C11.7884 46.4257 11.5927 46.4257 11.3806 46.4257C11.3806 45.6233 11.3806 44.8245 11.3806 44.0044Z" fill="white"/>
<path d="M46.3685 28.9865L46.3655 31.795C46.3655 31.9634 46.2991 32.1259 46.1832 32.2449L39.4751 39.052C39.3641 39.1669 39.2185 39.2294 39.0659 39.2294L29.036 39.2195V55H42.3807C49.3504 55 55 49.3504 55 42.3807V28.9865H46.3685Z" fill="#652D86"/>
<path d="M23.8627 11.2333C23.5319 11.2321 23.2005 11.2309 22.8696 11.2303C22.5595 11.2298 22.2501 11.2286 21.94 11.2315C21.87 11.2321 21.8463 11.2132 21.8463 11.1402C21.8493 10.4676 21.8493 9.79512 21.8463 9.12262C21.8457 9.04192 21.8742 9.02002 21.95 9.02002C22.4255 9.02182 22.901 9.02062 23.3765 9.02122C23.5384 9.02122 23.7003 9.02542 23.8627 9.02712C23.8627 9.18922 23.8627 9.35132 23.8627 9.51342C23.8242 9.52812 23.7839 9.53112 23.743 9.53112C23.357 9.53052 22.971 9.53052 22.585 9.53052C22.3627 9.53052 22.3663 9.53052 22.3615 9.75152C22.3597 9.83112 22.3858 9.85232 22.4635 9.85172C22.8821 9.84822 23.3007 9.85172 23.7192 9.84882C23.7975 9.84822 23.8183 9.87652 23.8129 9.94902C23.8058 10.0427 23.8052 10.137 23.8058 10.2313C23.807 10.3456 23.8088 10.345 23.6943 10.345C23.2811 10.3445 22.8684 10.3462 22.4552 10.3433C22.3846 10.3427 22.3556 10.3621 22.3621 10.4352C22.368 10.4995 22.368 10.5655 22.3621 10.6297C22.3544 10.7093 22.3852 10.7305 22.4629 10.7299C22.8868 10.7264 23.3107 10.7282 23.7347 10.7282C23.7779 10.7282 23.8218 10.7264 23.8627 10.7458C23.8627 10.9091 23.8627 11.0712 23.8627 11.2333Z" fill="white"/>
<path d="M11.7991 10.1253C11.7991 10.4601 11.7974 10.7955 11.8009 11.1302C11.8015 11.2086 11.7784 11.2357 11.6984 11.2316C11.5875 11.2257 11.4754 11.2281 11.364 11.231C11.3035 11.2328 11.2845 11.211 11.2845 11.1503C11.2869 10.7212 11.2857 10.2915 11.2845 9.86238C11.2845 9.83828 11.3029 9.79988 11.2667 9.79288C11.2353 9.78638 11.2288 9.82528 11.2157 9.84768C10.9608 10.2809 10.7053 10.7141 10.4521 11.1485C10.4189 11.2057 10.3798 11.2334 10.3098 11.2322C10.1118 11.2287 10.1124 11.2316 10.0062 11.0507C9.77501 10.6569 9.54322 10.2638 9.31202 9.87068C9.30482 9.85888 9.29892 9.84648 9.29062 9.83588C9.27992 9.82228 9.27642 9.79638 9.25092 9.80468C9.22722 9.81228 9.23312 9.83588 9.23312 9.85358C9.23252 9.98318 9.23252 10.1129 9.23252 10.2426C9.23252 10.542 9.23072 10.8414 9.23372 11.1414C9.23432 11.2092 9.21061 11.2334 9.14421 11.2322C9.02441 11.2293 8.90461 11.2293 8.78551 11.2322C8.73151 11.2334 8.71312 11.2116 8.71312 11.1609C8.71372 10.6587 8.71371 10.1559 8.71371 9.65378C8.71371 9.47578 8.71372 9.29718 8.71252 9.11918C8.71252 9.05788 8.71971 9.02248 8.80331 9.02658C8.98051 9.03548 9.15901 9.02718 9.33691 9.02428C9.39261 9.02308 9.40981 9.06608 9.43111 9.10148C9.56631 9.32608 9.69972 9.55178 9.83372 9.77698C9.96242 9.99268 10.0916 10.2084 10.2197 10.4247C10.2541 10.4825 10.276 10.4542 10.2991 10.4159C10.4302 10.1954 10.5624 9.97558 10.6934 9.75458C10.8286 9.52698 10.9626 9.29888 11.0972 9.07078C11.1155 9.04018 11.1428 9.02368 11.1778 9.02368C11.3586 9.02488 11.5389 9.02898 11.7197 9.02718C11.7855 9.02658 11.8009 9.05138 11.8003 9.11328C11.798 9.44978 11.7991 9.78758 11.7991 10.1253Z" fill="white"/>
<path d="M16.2091 11.2309C15.8937 11.2309 15.6221 11.2292 15.35 11.2321C15.2782 11.2327 15.2563 11.2079 15.2569 11.1384C15.2616 10.7565 15.2634 10.3751 15.264 9.99317C15.2646 9.70257 15.261 9.41257 15.2587 9.12197C15.2581 9.03887 15.2818 9.01997 15.3743 9.02117C15.6607 9.02477 15.947 9.03067 16.2328 9.02767C16.4978 9.02477 16.7634 9.01297 17.0273 9.03767C17.2407 9.05717 17.4393 9.12727 17.5603 9.32117C17.6955 9.53867 17.6907 9.76737 17.5834 9.99377C17.5573 10.0492 17.5573 10.0828 17.5947 10.1311C17.7233 10.2979 17.7275 10.4912 17.699 10.6869C17.6557 10.9881 17.4245 11.1914 17.1097 11.218C16.7955 11.2433 16.4806 11.2221 16.2091 11.2309ZM16.4391 10.7276C16.4391 10.727 16.4391 10.727 16.4391 10.7264C16.6348 10.7264 16.8298 10.7288 17.0255 10.7252C17.1441 10.7229 17.201 10.6521 17.2016 10.5201C17.2022 10.4081 17.1506 10.3503 17.035 10.345C16.9158 10.3391 16.7966 10.3403 16.6769 10.3397C16.4083 10.3386 16.1397 10.3409 15.8711 10.3368C15.7917 10.3356 15.765 10.3633 15.7715 10.4405C15.7775 10.5101 15.7751 10.5808 15.7721 10.6509C15.7692 10.7111 15.7929 10.7299 15.8533 10.7288C16.0484 10.7252 16.2435 10.7276 16.4391 10.7276ZM16.4142 9.53457C16.4142 9.53337 16.4142 9.53217 16.4142 9.53107C16.2429 9.53107 16.0721 9.53107 15.9008 9.53107C15.7751 9.53107 15.7751 9.53107 15.7745 9.65187C15.7745 9.68137 15.7763 9.71137 15.7727 9.74087C15.765 9.81457 15.7941 9.83867 15.8699 9.83807C16.2227 9.83457 16.5761 9.83637 16.9289 9.83577C16.9615 9.83577 16.9941 9.83167 17.0261 9.83047C17.1138 9.82697 17.1405 9.77327 17.1417 9.69547C17.1441 9.59297 17.0984 9.53747 16.9917 9.53517C16.7996 9.53167 16.6069 9.53457 16.4142 9.53457Z" fill="white"/>
<path d="M13.4729 9.00472C13.7432 9.00472 13.9342 8.99232 14.1233 9.00772C14.3747 9.02892 14.6035 9.10732 14.7197 9.36192C14.7713 9.47572 14.801 9.59712 14.8027 9.72092C14.8057 10.0067 14.8104 10.2938 14.7992 10.579C14.7927 10.7464 14.7523 10.9103 14.6284 11.0394C14.4897 11.1838 14.3077 11.2203 14.1221 11.2239C13.7207 11.2321 13.3181 11.2445 12.9167 11.2162C12.5385 11.1897 12.3102 10.9934 12.2776 10.6197C12.2474 10.2737 12.2397 9.92302 12.2865 9.57702C12.3292 9.25992 12.5243 9.08672 12.8397 9.02652C13.0768 8.98232 13.3152 9.01772 13.4729 9.00472ZM13.6116 10.7264C13.7272 10.7223 13.9205 10.7399 14.1126 10.7181C14.2407 10.7034 14.2762 10.671 14.2822 10.5443C14.2946 10.2637 14.2934 9.98262 14.2834 9.70202C14.2786 9.57592 14.2442 9.53582 14.1156 9.52582C13.7415 9.49752 13.3662 9.50452 12.992 9.52162C12.8284 9.52932 12.7816 9.60002 12.7792 9.76862C12.7768 9.92542 12.778 10.0816 12.7786 10.2384C12.7792 10.3462 12.7721 10.4547 12.7863 10.5619C12.7946 10.6238 12.8177 10.6787 12.8853 10.6963C12.9452 10.7122 13.0057 10.7276 13.0697 10.727C13.2251 10.7252 13.3804 10.7264 13.6116 10.7264Z" fill="white"/>
<path d="M7.14321 11.2228C6.80881 11.2228 6.47441 11.2234 6.14001 11.2228C6.03331 11.2228 6.04452 11.2151 6.02912 11.1131C5.99832 10.908 6.08962 10.7742 6.23252 10.6393C6.58642 10.3039 6.92682 9.95438 7.27182 9.60958C7.29142 9.59008 7.33051 9.57298 7.31571 9.53998C7.30151 9.50698 7.26232 9.52408 7.23452 9.52408C6.86812 9.52288 6.50112 9.52108 6.13412 9.52468C6.05762 9.52528 6.02561 9.50578 6.03031 9.42508C6.03621 9.31488 6.03391 9.20348 6.03091 9.09318C6.02911 9.03128 6.05281 9.00478 6.11631 9.00538C6.45241 9.00838 6.78921 9.00948 7.12541 9.00948C7.45091 9.00948 7.77642 9.00718 8.10192 9.00598C8.20322 9.00538 8.20801 9.00948 8.20861 9.10968C8.21041 9.38908 8.20861 9.38788 8.01231 9.58478C7.66251 9.93548 7.31451 10.2886 6.96651 10.641C6.94871 10.6587 6.91431 10.674 6.93151 10.7053C6.94451 10.7294 6.97601 10.7177 6.99911 10.7177C7.39041 10.7171 7.78171 10.7177 8.17361 10.7147C8.23531 10.7141 8.25541 10.7383 8.25421 10.796C8.25191 10.9015 8.25362 11.0071 8.25362 11.112C8.25362 11.2198 8.25192 11.2222 8.14572 11.2222C7.81192 11.2234 7.47751 11.2234 7.14321 11.2228Z" fill="white"/>
<path d="M5.02122 9.81581C5.02122 9.58061 5.02242 9.34541 5.02002 9.11021C5.01942 9.05131 5.03781 9.02771 5.09951 9.02951C5.22461 9.03301 5.34972 9.03182 5.47482 9.03012C5.52632 9.02952 5.54832 9.04721 5.54712 9.10081C5.54352 9.37071 5.53881 9.64011 5.54121 9.91011C5.54351 10.1582 5.55242 10.4058 5.52282 10.6533C5.48542 10.9651 5.28922 11.172 4.97502 11.2162C4.64472 11.2628 4.31271 11.2345 3.98191 11.2415C3.81051 11.2451 3.63861 11.2386 3.47321 11.1914C3.24251 11.1266 3.09792 10.9804 3.04092 10.7435C3.01602 10.6398 3.00362 10.536 3.00302 10.4317C3.00002 9.99612 3.00241 9.56051 3.00001 9.12561C2.99941 9.05721 3.01662 9.02712 3.09072 9.03012C3.20752 9.03542 3.32491 9.03302 3.44171 9.03072C3.49331 9.02952 3.51531 9.04781 3.51471 9.10081C3.51291 9.30531 3.51051 9.50931 3.51471 9.71381C3.52061 9.99381 3.50582 10.2737 3.52182 10.5531C3.52652 10.6321 3.55792 10.684 3.64152 10.7034C3.70322 10.7176 3.76431 10.7234 3.82711 10.7234C4.14551 10.7229 4.46332 10.7246 4.78172 10.7223C4.95892 10.7211 5.02122 10.6557 5.02122 10.48C5.02182 10.259 5.02122 10.0374 5.02122 9.81581Z" fill="white"/>
<path d="M19.4368 10.1346C19.4368 9.79752 19.4374 9.45972 19.4362 9.12262C19.4356 9.05132 19.4534 9.01362 19.5376 9.01952C19.6455 9.02712 19.7552 9.02482 19.8637 9.02002C19.936 9.01712 19.9573 9.04542 19.9573 9.11492C19.955 9.61712 19.9573 10.1199 19.9544 10.6221C19.9538 10.6975 19.971 10.7252 20.0534 10.7246C20.4637 10.7205 20.874 10.7223 21.2842 10.7223C21.391 10.7223 21.3921 10.724 21.391 10.8325C21.3898 10.9327 21.385 11.0329 21.3921 11.1319C21.3975 11.2068 21.3738 11.2315 21.2985 11.2309C20.8556 11.2286 20.4127 11.2298 19.9698 11.2303C19.8257 11.2303 19.6816 11.2262 19.5376 11.2321C19.4558 11.2356 19.438 11.2056 19.4392 11.1301C19.4427 10.7983 19.4409 10.4665 19.4409 10.1346C19.4392 10.1346 19.438 10.1346 19.4368 10.1346Z" fill="white"/>
<path d="M18.2848 10.1293C18.2848 9.7945 18.2866 9.4592 18.283 9.1244C18.2824 9.0483 18.3026 9.0159 18.3832 9.02C18.4947 9.0254 18.6061 9.023 18.7176 9.0206C18.7745 9.0195 18.8012 9.0371 18.8012 9.0996C18.7994 9.7857 18.7994 10.4724 18.8006 11.1584C18.8006 11.2174 18.7757 11.2327 18.7218 11.2315C18.605 11.2292 18.4876 11.2274 18.3714 11.2321C18.302 11.2351 18.283 11.2085 18.283 11.1425C18.2854 10.8048 18.2842 10.4671 18.2848 10.1293C18.2842 10.1293 18.2842 10.1293 18.2848 10.1293Z" fill="white"/>
<path d="M42.3807 0H29.036V15.8737L44.5262 15.8886C45.5499 15.8896 46.3794 16.7695 46.3784 17.8527L46.3714 25.9144H55V12.6193C55 5.64964 49.3504 0 42.3807 0Z" fill="#FFE500"/>
<path d="M34.6149 9.92518C35.2814 10.376 35.4638 11.224 35.0417 11.8713C34.828 12.1992 34.5038 12.3549 34.1343 12.4218C33.967 12.4522 33.795 12.4656 33.6247 12.4681C33.1507 12.4741 32.6768 12.4705 32.2022 12.4699C32.0579 12.4699 32.0253 12.4376 32.0253 12.2935C32.0253 10.8061 32.0253 9.31928 32.0253 7.8319C32.0253 7.69259 32.0573 7.65913 32.1944 7.65913C32.7112 7.65974 33.228 7.65365 33.7448 7.66642C34.092 7.67494 34.4174 7.76497 34.6994 7.99006C35.1395 8.34167 35.3303 9.3071 34.7181 9.83697C34.6867 9.86434 34.6547 9.89173 34.6149 9.92518ZM32.6949 10.2805C32.6949 10.8146 32.6949 11.3159 32.6949 11.822C32.7245 11.825 32.748 11.8305 32.7722 11.8305C33.1 11.8299 33.4279 11.8323 33.7557 11.825C33.865 11.8226 33.9767 11.805 34.0817 11.7752C34.3444 11.7009 34.5044 11.5276 34.5285 11.2483C34.5394 11.1242 34.5412 10.9971 34.5291 10.873C34.5002 10.5633 34.3438 10.3681 34.0383 10.3389C33.5969 10.2975 33.1513 10.2981 32.6949 10.2805ZM32.6973 8.31188C32.6973 8.75779 32.6973 9.20369 32.6973 9.65081C33.068 9.65081 33.4309 9.66664 33.7925 9.64657C34.2031 9.62406 34.4036 9.38133 34.3939 8.96584C34.3927 8.9263 34.3891 8.88736 34.3848 8.84782C34.354 8.5473 34.2146 8.36054 33.9193 8.33378C33.5202 8.29788 33.1175 8.30944 32.716 8.30093C32.71 8.30093 32.7039 8.30762 32.6973 8.31188Z" fill="#202020"/>
<path d="M36.3724 11.1394C36.3507 11.6443 36.6145 11.929 37.0915 11.9321C37.2056 11.9327 37.3203 11.9357 37.4333 11.9254C37.6246 11.9071 37.8154 11.8822 38.0056 11.853C38.1566 11.8299 38.197 11.8578 38.1982 12.0087C38.1988 12.0987 38.2067 12.19 38.1934 12.2776C38.1868 12.3214 38.1469 12.3834 38.1095 12.395C37.6283 12.5416 37.1368 12.5878 36.6429 12.4765C36.2613 12.3907 35.9896 12.1492 35.858 11.7812C35.6401 11.1704 35.6395 10.5457 35.8417 9.93245C35.9981 9.46039 36.3561 9.21158 36.8398 9.15622C37.0148 9.13614 37.1978 9.13614 37.3723 9.1623C37.8927 9.23956 38.2025 9.54555 38.2858 10.0851C38.3323 10.3851 38.3335 10.6923 38.348 10.997C38.3534 11.1072 38.3081 11.1394 38.1831 11.1394C37.6234 11.14 37.0637 11.1394 36.5041 11.14C36.4624 11.1394 36.4201 11.1394 36.3724 11.1394ZM36.373 10.5663C36.8114 10.5663 37.2503 10.5663 37.7188 10.5663C37.6899 10.3887 37.6729 10.2184 37.6319 10.0547C37.5884 9.88257 37.458 9.77976 37.2871 9.75847C37.1483 9.74144 37.001 9.73779 36.8645 9.76395C36.5342 9.82782 36.3338 10.1661 36.373 10.5663Z" fill="#202020"/>
<path d="M39.5199 11.1394C39.4704 11.5908 39.7463 11.9315 40.175 11.9272C40.501 11.9235 40.8276 11.8846 41.1531 11.8518C41.3016 11.8366 41.339 11.8591 41.3414 12.0136C41.342 12.0568 41.3414 12.1 41.3414 12.1432C41.3408 12.381 41.3414 12.3841 41.1168 12.4394C40.7256 12.5355 40.3277 12.5653 39.9286 12.5075C39.4806 12.4425 39.1492 12.2016 38.997 11.7666C38.7827 11.1552 38.7839 10.5305 38.9916 9.91849C39.1534 9.44216 39.5211 9.19882 40.0089 9.15563C40.2124 9.13738 40.4249 9.14468 40.6248 9.18361C41.1054 9.27791 41.3541 9.61553 41.4284 10.0778C41.4767 10.3808 41.4773 10.6923 41.4912 11.0001C41.496 11.1096 41.4525 11.1388 41.3233 11.1388C40.7636 11.1394 40.2039 11.1394 39.6442 11.1394C39.6026 11.1394 39.5603 11.1394 39.5199 11.1394ZM40.8373 10.5676C40.8614 10.1831 40.7757 9.90449 40.5831 9.81446C40.315 9.68853 40.0373 9.69279 39.7891 9.85948C39.544 10.0243 39.5265 10.2962 39.5042 10.5676C39.9576 10.5676 40.3935 10.5676 40.8373 10.5676Z" fill="#202020"/>
<path d="M48.5281 11.1394C48.5649 11.2945 48.5836 11.4344 48.6325 11.5622C48.7291 11.8177 48.9392 11.9327 49.1964 11.9266C49.5261 11.9187 49.8564 11.8864 50.1848 11.853C50.3442 11.8365 50.3786 11.8542 50.3792 12.0148C50.3798 12.1012 50.3895 12.1888 50.375 12.2727C50.3671 12.319 50.3261 12.3847 50.2868 12.3968C49.8165 12.5416 49.3353 12.5842 48.8523 12.4832C48.4629 12.4017 48.1803 12.1638 48.0444 11.7861C47.8211 11.1649 47.8205 10.5298 48.0354 9.9081C48.1978 9.43725 48.5655 9.20182 49.0485 9.15376C49.2139 9.13734 49.3848 9.13673 49.549 9.16046C50.0882 9.23893 50.401 9.55892 50.4788 10.1289C50.5187 10.4191 50.5157 10.7154 50.5296 11.0086C50.535 11.1242 50.4571 11.14 50.3659 11.1394C49.8032 11.1388 49.2405 11.1388 48.6772 11.1388C48.6349 11.1394 48.5939 11.1394 48.5281 11.1394ZM48.5275 10.5645C48.996 10.5645 49.4379 10.5645 49.8926 10.5645C49.8793 10.4343 49.8751 10.3127 49.8533 10.1934C49.7996 9.89533 49.668 9.77123 49.3697 9.74385C49.2653 9.73412 49.1554 9.74203 49.0521 9.76149C48.8402 9.80164 48.6899 9.92939 48.6241 10.1369C48.5806 10.2713 48.5607 10.4136 48.5275 10.5645Z" fill="#202020"/>
<path d="M45.3269 9.37518C45.5388 9.30218 45.7393 9.21458 45.9482 9.16591C46.1975 9.10751 46.4523 9.13185 46.6974 9.21154C47.0742 9.33381 47.2903 9.61608 47.3193 10.014C47.3242 10.0785 47.3266 10.1429 47.3266 10.208C47.3272 10.9015 47.3272 11.595 47.3272 12.2879C47.3272 12.4479 47.3048 12.4692 47.1485 12.4698C47.0452 12.4704 46.942 12.471 46.8381 12.4692C46.721 12.468 46.6878 12.4333 46.6836 12.3147C46.683 12.2934 46.6836 12.2715 46.6836 12.2502C46.6836 11.5713 46.6836 10.8924 46.6836 10.2135C46.6836 10.1667 46.683 10.1198 46.6799 10.0736C46.6679 9.89592 46.5857 9.79128 46.4113 9.76026C46.1329 9.71098 45.8588 9.73349 45.5919 9.83691C45.5074 9.86976 45.4766 9.91417 45.4772 10.0097C45.4821 10.7641 45.4796 11.5184 45.4796 12.2727C45.4796 12.4516 45.4609 12.4698 45.2834 12.4698C45.1838 12.4698 45.0836 12.468 44.984 12.4704C44.8873 12.4723 44.8378 12.4309 44.8378 12.3299C44.8384 11.331 44.8384 10.3327 44.8378 9.33381C44.8378 9.24439 44.8843 9.20241 44.9689 9.19816C45.0081 9.19633 45.0473 9.20059 45.0866 9.19633C45.2055 9.18356 45.2895 9.21945 45.3142 9.34963C45.3172 9.36606 45.3299 9.38066 45.3269 9.37518Z" fill="#202020"/>
<path d="M42.0786 10.0658C42.0786 9.32904 42.0786 8.59295 42.0786 7.85625C42.0786 7.70052 42.1046 7.67375 42.2579 7.67314C42.3612 7.67254 42.4644 7.67375 42.5683 7.67375C42.6595 7.67375 42.7084 7.71573 42.7078 7.81063C42.7071 7.84287 42.7084 7.87511 42.7084 7.90735C42.7084 9.3552 42.7084 10.8031 42.7084 12.2509C42.7084 12.4584 42.6963 12.4699 42.491 12.4699C42.4161 12.4699 42.3413 12.4699 42.2664 12.4699C42.1022 12.4699 42.0792 12.4474 42.0792 12.2856C42.0792 11.6535 42.0792 11.0209 42.0792 10.3888C42.0786 10.2811 42.0786 10.1735 42.0786 10.0658Z" fill="#202020"/>
<path d="M44.1163 10.8322C44.1163 11.3134 44.1163 11.7946 44.1163 12.2758C44.1163 12.4516 44.0988 12.4692 43.9286 12.4698C43.8362 12.4698 43.7432 12.4704 43.6508 12.4698C43.5174 12.4686 43.4896 12.4412 43.4896 12.3031C43.489 11.6601 43.4896 11.0171 43.4896 10.3747C43.4896 10.0407 43.4896 9.70677 43.4896 9.3728C43.4896 9.22801 43.5204 9.19881 43.6665 9.19759C43.7523 9.19699 43.8374 9.19699 43.9231 9.19759C44.0916 9.1982 44.1169 9.22254 44.1169 9.38861C44.1163 9.86981 44.1163 10.351 44.1163 10.8322Z" fill="#202020"/>
<path d="M43.8084 8.54547C43.6007 8.5479 43.4413 8.38973 43.4413 8.18047C43.4407 7.97607 43.5959 7.81729 43.7976 7.81425C44.0022 7.81121 44.1671 7.97424 44.1671 8.17986C44.1665 8.38183 44.0083 8.54364 43.8084 8.54547Z" fill="#202020"/>
<path d="M37.731 37.3098L12.4696 37.285C11.5639 37.2841 10.8305 36.5487 10.8315 35.643L10.8454 19.4135C10.8464 18.5077 11.5817 17.7744 12.4875 17.7754L42.5601 17.8022C43.4659 17.8032 44.1992 18.5385 44.1982 19.4442L44.1873 31.0963C44.1873 31.237 44.1288 31.3728 44.0258 31.4719L38.0927 37.1612C37.9946 37.2573 37.8658 37.3098 37.731 37.3098Z" fill="#FF0008"/>
<path d="M14.6203 26.1862C14.9294 26.1876 15.2385 26.1919 15.5469 26.1883C15.6327 26.1876 15.6699 26.2062 15.6678 26.2985C15.6663 26.3851 15.6842 26.4717 15.6957 26.5797C15.9848 26.2591 16.3268 26.1039 16.7403 26.1096C17.1518 26.1153 17.4974 26.262 17.7635 26.5933C17.9138 26.4437 18.0784 26.3285 18.2673 26.2498C18.6594 26.086 19.0622 26.0638 19.4672 26.1826C19.943 26.3221 20.202 26.6627 20.2994 27.1349C20.3215 27.243 20.3337 27.3553 20.3344 27.4655C20.3373 28.176 20.3366 28.8858 20.3366 29.5963C20.3366 29.6185 20.3344 29.6414 20.333 29.67C19.9774 29.67 19.6246 29.67 19.2597 29.67C19.2597 29.6364 19.2597 29.6035 19.2597 29.5706C19.2597 28.9431 19.2633 28.3156 19.2568 27.688C19.2554 27.5657 19.2296 27.4376 19.1874 27.3231C19.123 27.1478 18.9778 27.0577 18.7917 27.0405C18.3309 26.9983 18.0047 27.2981 18.0018 27.7746C17.9982 28.3706 18.0011 28.9667 18.0004 29.5627C18.0004 29.5963 18.0004 29.6307 18.0004 29.67C17.6526 29.67 17.3113 29.67 16.96 29.67C16.96 29.635 16.96 29.6013 16.96 29.5677C16.96 28.9459 16.9629 28.3241 16.9571 27.7024C16.9564 27.585 16.9385 27.4627 16.9013 27.351C16.8377 27.1614 16.6917 27.0577 16.4899 27.0391C16.0313 26.9976 15.7036 27.3052 15.7007 27.7868C15.6971 28.38 15.7 28.9731 15.7 29.567C15.7 29.6006 15.7 29.6343 15.7 29.6793C15.3336 29.6793 14.9766 29.6793 14.6203 29.6793C14.6203 28.5138 14.6203 27.3496 14.6203 26.1862Z" fill="white"/>
<path d="M27.1047 24.6456C27.1047 25.2173 27.1047 25.7898 27.1047 26.3751C27.1297 26.36 27.1419 26.3543 27.1519 26.3464C27.7379 25.8914 28.6409 25.9643 29.1432 26.5089C29.3958 26.7822 29.5324 27.1106 29.5854 27.4734C29.6433 27.8726 29.6083 28.2655 29.4459 28.6383C29.1868 29.2336 28.7089 29.5513 28.0878 29.6736C27.524 29.7845 26.9659 29.7137 26.4142 29.5813C26.314 29.5577 26.216 29.5255 26.1165 29.5019C26.0507 29.4869 26.0264 29.4568 26.0271 29.3845C26.0314 28.9738 26.0292 28.5631 26.0292 28.1524C26.0292 27.0197 26.0292 25.8878 26.0292 24.7551C26.0292 24.7179 26.0257 24.6814 26.0235 24.6442C26.3834 24.6456 26.7441 24.6456 27.1047 24.6456ZM27.1154 28.1617C27.1118 28.1617 27.1083 28.1617 27.1047 28.1617C27.1047 28.3327 27.109 28.5037 27.1025 28.6747C27.0997 28.7506 27.1269 28.7885 27.1984 28.7957C27.368 28.8114 27.5397 28.8436 27.7086 28.835C28.0606 28.8178 28.3118 28.6347 28.4413 28.307C28.5593 28.0064 28.5615 27.6988 28.4427 27.3975C28.3475 27.1564 28.1787 26.9883 27.9082 26.9618C27.5004 26.9217 27.1641 27.0891 27.119 27.5557C27.0997 27.756 27.1154 27.9599 27.1154 28.1617Z" fill="white"/>
<path d="M40.379 29.6779C40.2302 29.6772 40.0814 29.675 39.9325 29.675C39.0825 29.675 38.2332 29.675 37.3831 29.675C37.3495 29.675 37.3159 29.675 37.2715 29.675C37.2715 29.4854 37.2787 29.3037 37.2687 29.1227C37.2622 29.006 37.2987 28.9216 37.3781 28.8357C37.899 28.2712 38.4142 27.7009 38.9308 27.1328C38.9508 27.1106 38.9702 27.0877 39.0052 27.0476C38.4392 27.0476 37.8976 27.0476 37.3502 27.0476C37.3502 26.7593 37.3502 26.481 37.3502 26.1976C38.3498 26.1976 39.3494 26.1976 40.3583 26.1976C40.3604 26.2241 40.3647 26.2513 40.3647 26.2792C40.3654 26.4702 40.3683 26.6613 40.3626 26.8523C40.3611 26.8952 40.3418 26.9475 40.3132 26.9797C39.7794 27.5707 39.2421 28.1596 38.7061 28.7492C38.6832 28.7742 38.6611 28.7992 38.6239 28.8407C39.2227 28.8407 39.8009 28.8407 40.3797 28.8407C40.379 29.1184 40.379 29.3981 40.379 29.6779Z" fill="white"/>
<path d="M31.6897 24.6456C31.6604 24.7007 31.6332 24.7565 31.6017 24.8102C31.4579 25.0556 31.3134 25.3003 31.1688 25.5458C31.1567 25.5672 31.1416 25.5866 31.1216 25.6173C31.0651 25.5214 31.0129 25.4349 30.9621 25.3469C30.8268 25.1136 30.6916 24.8796 30.5564 24.6464C30.9341 24.6456 31.3119 24.6456 31.6897 24.6456Z" fill="white"/>
<path d="M25.0619 27.9327C25.0611 28.9946 24.2469 29.796 23.1715 29.7945C22.0917 29.7931 21.2818 28.9889 21.2839 27.9206C21.2861 26.8573 22.096 26.0695 23.1843 26.0717C24.2612 26.0738 25.0626 26.8681 25.0619 27.9327ZM24.0265 27.8598C24.0151 27.7961 24.005 27.6995 23.9786 27.6072C23.8762 27.243 23.5779 27.009 23.2029 26.9933C22.8423 26.9775 22.5332 27.1815 22.3973 27.5292C22.2799 27.829 22.2914 28.1267 22.4352 28.4143C22.6742 28.8944 23.3067 29.0275 23.7074 28.6819C23.9485 28.4744 24.0251 28.1982 24.0265 27.8598Z" fill="white"/>
<path d="M36.2347 29.67C35.8941 29.67 35.5578 29.67 35.2144 29.67C35.2029 29.552 35.1922 29.4375 35.18 29.3108C35.1564 29.3294 35.1436 29.338 35.1314 29.3495C34.677 29.7724 34.149 29.8675 33.5737 29.6657C33.1351 29.5119 32.9154 29.1656 32.8446 28.7198C32.8238 28.5882 32.8152 28.4529 32.8145 28.3198C32.8117 27.6408 32.8131 26.9625 32.8131 26.2835C32.8131 26.2556 32.816 26.2277 32.8174 26.1955C33.1737 26.1955 33.5243 26.1955 33.8835 26.1955C33.885 26.2327 33.8885 26.2684 33.8885 26.3042C33.8885 26.9231 33.8871 27.5421 33.89 28.161C33.8907 28.2569 33.8993 28.3563 33.9243 28.4486C34.0209 28.8064 34.4452 28.9588 34.7972 28.7642C35.0734 28.6118 35.1722 28.3592 35.1743 28.063C35.1786 27.4755 35.1758 26.8881 35.1758 26.3006C35.1758 26.267 35.1758 26.2341 35.1758 26.1955C35.5335 26.1955 35.8805 26.1955 36.2347 26.1955C36.2347 27.3539 36.2347 28.5102 36.2347 29.67Z" fill="white"/>
<path d="M30.6136 26.1947C30.9699 26.1947 31.3205 26.1947 31.6776 26.1947C31.6776 27.3525 31.6776 28.508 31.6776 29.6693C31.3234 29.6693 30.9706 29.6693 30.6136 29.6693C30.6136 28.5102 30.6136 27.3546 30.6136 26.1947Z" fill="white"/>
<path d="M34.0156 43.0052C34.7471 42.9863 34.9565 43.189 34.9605 43.9004C34.965 44.6767 34.9572 45.453 34.9631 46.2293C34.9696 47.1124 35.7843 47.5711 36.5322 47.1171C36.8489 46.9246 36.8934 46.5989 36.896 46.2679C36.9032 45.3003 36.8993 44.3328 36.8993 43.3646C36.8993 43.2538 36.8993 43.1437 36.8993 43.0376C37.5465 42.912 37.8586 43.1424 37.8678 43.7714C37.8802 44.6598 37.8894 45.5497 37.8566 46.4374C37.8233 47.3556 37.3181 47.9279 36.4413 48.0454C36.0585 48.0968 35.6567 48.0866 35.2745 48.0265C34.6005 47.9211 34.0686 47.4103 34.0326 46.6955C33.9711 45.4767 34.0156 44.2504 34.0156 43.0052Z" fill="white"/>
<path d="M45.8572 46.4196C45.0144 46.4196 44.1899 46.4196 43.3517 46.4196C43.3202 46.7899 43.4053 47.0838 43.7017 47.2554C44.0518 47.4581 44.4556 47.4817 44.7409 47.1959C45.0569 46.8784 45.3939 46.8966 45.7643 46.9216C45.5935 47.8763 44.6754 48.2128 43.8372 48.0776C42.8439 47.9175 42.2399 46.9912 42.3943 45.8724C42.5383 44.8306 43.4092 44.1489 44.4313 44.2792C45.3291 44.3928 45.9763 45.3353 45.8572 46.4196ZM43.3562 45.7967C43.8869 45.7967 44.3973 45.7967 44.911 45.7967C44.822 45.2089 44.5603 44.9677 44.076 44.9995C43.6376 45.0278 43.37 45.3157 43.3562 45.7967Z" fill="white"/>
<path d="M41.8951 45.615C41.6785 45.615 41.4697 45.6379 41.2702 45.6055C41.1609 45.5879 41.032 45.4988 40.9711 45.4021C40.6361 44.8657 39.9327 44.8461 39.6395 45.3988C39.3666 45.9136 39.3686 46.4649 39.6284 46.9845C39.879 47.4858 40.64 47.5648 40.873 47.0851C41.0889 46.6399 41.3906 46.6048 41.7747 46.6399C41.8283 46.6446 41.8826 46.65 41.9363 46.6548C41.8525 47.6087 41.1517 48.1628 40.1205 48.0979C39.0951 48.033 38.4708 47.2284 38.5238 46.0413C38.5736 44.936 39.2868 44.2638 40.3815 44.2725C41.206 44.2793 41.9716 44.8928 41.8951 45.615Z" fill="white"/>
<path d="M47.4348 48.004C46.8479 48.083 46.5286 47.8547 46.5227 47.3047C46.5089 45.9095 46.5174 44.5137 46.5187 43.1178C46.5187 43.0861 46.5364 43.055 46.5449 43.0259C47.1711 42.9259 47.4479 43.1084 47.4551 43.6901C47.4721 45.0967 47.461 46.5034 47.4597 47.9108C47.4597 47.9418 47.4427 47.9736 47.4348 48.004Z" fill="white"/>
<path d="M49.2998 47.9993C48.6834 48.0763 48.4053 47.8432 48.4033 47.2446C48.3981 45.9163 48.4007 44.588 48.4007 43.2604C48.4007 43.1833 48.4092 43.1063 48.4131 43.0334C49.0949 42.9185 49.3148 43.1057 49.3155 43.7901C49.3168 45.0954 49.3168 46.4014 49.3161 47.7067C49.3161 47.8054 49.3056 47.904 49.2998 47.9993Z" fill="white"/>
</svg>
