<svg width="36" height="36" viewBox="0 0 36 36" fill="none" xmlns="http://www.w3.org/2000/svg">
<path d="M22.3677 5.44396C21.1874 3.47651 19.7384 1.68364 18.0627 0.116455C16.3869 1.68364 14.9379 3.47651 13.7576 5.44396H22.3677Z" fill="white"/>
<path d="M13.0916 6.63976C12.2911 8.16228 11.6549 9.76596 11.1934 11.4231H24.932C24.4704 9.76596 23.8342 8.16228 23.0337 6.63976H13.0916Z" fill="white"/>
<path d="M26.1751 11.4231H34.7494C34.0665 9.69239 33.1182 8.07878 31.9391 6.63976H24.3773C25.1352 8.16987 25.7375 9.77238 26.1751 11.4231Z" fill="white"/>
<path d="M24.3773 29.3605H31.9408C33.12 27.9215 34.0682 26.3076 34.7511 24.5772H26.1751C25.7375 26.2276 25.1352 27.8301 24.3773 29.3605Z" fill="white"/>
<path d="M11.7481 6.63976H4.18337C3.00389 8.07849 2.05593 9.69239 1.37305 11.4231H9.95025C10.3879 9.77238 10.9902 8.16987 11.7481 6.63976Z" fill="white"/>
<path d="M30.8653 5.44396C27.9096 2.4214 23.9782 0.544457 19.7697 0.145653C21.3159 1.73386 22.6512 3.51476 23.7428 5.44396H30.8653Z" fill="white"/>
<path d="M5.25832 30.5563C8.21461 33.5789 12.1463 35.4561 16.3556 35.8544C14.8095 34.2662 13.4741 32.4855 12.3825 30.5563H5.25832Z" fill="white"/>
<path d="M19.7697 35.8544C23.9782 35.4559 27.9096 33.5786 30.8653 30.5563H23.7428C22.6512 32.4855 21.3159 34.2662 19.7697 35.8544Z" fill="white"/>
<path d="M9.95024 24.5772H1.37537C2.05825 26.3076 3.0065 27.9215 4.18568 29.3605H11.7481C10.9902 27.8301 10.3879 26.2276 9.95024 24.5772Z" fill="white"/>
<path d="M16.3556 0.145653C12.1463 0.543873 8.21461 2.42111 5.25832 5.44396H12.3825C13.4741 3.51476 14.8095 1.73386 16.3556 0.145653Z" fill="white"/>
<path d="M23.0337 29.3605C23.8342 27.8377 24.4704 26.2343 24.932 24.5772H11.1934C11.6549 26.2343 12.2911 27.8377 13.0916 29.3605H23.0337Z" fill="white"/>
<path d="M13.7576 30.5563C14.9379 32.5235 16.3869 34.3167 18.0627 35.8836C19.7384 34.3167 21.1874 32.5235 22.3677 30.5563H13.7576Z" fill="white"/>
<path d="M35.052 13H0.822642C-0.274214 16.5034 -0.274214 20.2588 0.822642 23.7625H35.052C36.1489 20.2588 36.1489 16.5034 35.052 13ZM9.54552 21.5279C9.47546 21.7854 9.24336 21.9652 8.97651 21.9687H8.96863C8.70442 21.9687 8.47173 21.7953 8.39583 21.5422L7.17489 17.4724L5.95396 21.5422C5.87805 21.7953 5.64536 21.9687 5.38115 21.9687H5.37327C5.10672 21.9652 4.87432 21.7854 4.80426 21.5279L3.01052 14.9508L4.1643 14.6364L5.40859 19.1984L6.60442 15.22C6.68033 14.9669 6.91301 14.7935 7.17723 14.7935C7.44144 14.7935 7.67442 14.9669 7.75003 15.22L8.94586 19.1984L10.1902 14.6364L11.3442 14.9508L9.54552 21.5279ZM20.308 21.5279C20.2379 21.7854 20.0058 21.9652 19.739 21.9687H19.7311C19.4669 21.9687 19.2342 21.7953 19.1583 21.5422L17.9373 17.4724L16.7164 21.5422C16.6405 21.7953 16.4078 21.9687 16.1436 21.9687H16.1357C15.8692 21.9652 15.6368 21.7854 15.5667 21.5279L13.773 14.9508L14.9267 14.6364L16.171 19.1984L17.3669 15.22C17.4428 14.9669 17.6755 14.7935 17.9397 14.7935C18.2039 14.7935 18.4369 14.9669 18.5125 15.22L19.7083 19.1984L20.9526 14.6364L22.1067 14.9508L20.308 21.5279ZM31.0704 21.5279C31.0003 21.7854 30.7682 21.9652 30.5014 21.9687H30.4935C30.2293 21.9687 29.9966 21.7953 29.9207 21.5422L28.6998 17.4724L27.4788 21.5422C27.4029 21.7953 27.1703 21.9687 26.906 21.9687H26.8982C26.6316 21.9652 26.3992 21.7854 26.3291 21.5279L24.5354 14.9508L25.6892 14.6364L26.9335 19.1984L28.1293 15.22C28.2052 14.9669 28.4379 14.7935 28.7021 14.7935C28.9663 14.7935 29.1993 14.9669 29.2749 15.22L30.4707 19.1984L31.715 14.6364L32.8691 14.9508L31.0704 21.5279Z" fill="white"/>
</svg>
