<svg width="50" height="50" viewBox="0 0 50 50" fill="none" xmlns="http://www.w3.org/2000/svg">
<path d="M29.3677 12.444C28.1874 10.4765 26.7384 8.68364 25.0627 7.11646C23.3869 8.68364 21.9379 10.4765 20.7576 12.444H29.3677Z" fill="white"/>
<path d="M20.0916 13.6398C19.2911 15.1623 18.6549 16.766 18.1934 18.4231H31.932C31.4704 16.766 30.8342 15.1623 30.0337 13.6398H20.0916Z" fill="white"/>
<path d="M33.1751 18.4231H41.7494C41.0665 16.6924 40.1182 15.0788 38.9391 13.6398H31.3773C32.1352 15.1699 32.7375 16.7724 33.1751 18.4231Z" fill="white"/>
<path d="M31.3773 36.3605H38.9408C40.12 34.9215 41.0682 33.3076 41.7511 31.5772H33.1751C32.7375 33.2276 32.1352 34.8301 31.3773 36.3605Z" fill="white"/>
<path d="M18.7481 13.6398H11.1834C10.0039 15.0785 9.05593 16.6924 8.37305 18.4231H16.9503C17.3879 16.7724 17.9902 15.1699 18.7481 13.6398Z" fill="white"/>
<path d="M37.8653 12.444C34.9096 9.4214 30.9782 7.54446 26.7697 7.14565C28.3159 8.73386 29.6512 10.5148 30.7428 12.444H37.8653Z" fill="white"/>
<path d="M12.2583 37.5563C15.2146 40.5789 19.1463 42.4561 23.3556 42.8544C21.8095 41.2662 20.4741 39.4855 19.3825 37.5563H12.2583Z" fill="white"/>
<path d="M26.7697 42.8544C30.9782 42.4559 34.9096 40.5786 37.8653 37.5563H30.7428C29.6512 39.4855 28.3159 41.2662 26.7697 42.8544Z" fill="white"/>
<path d="M16.9502 31.5772H8.37537C9.05825 33.3076 10.0065 34.9215 11.1857 36.3605H18.7481C17.9902 34.8301 17.3879 33.2276 16.9502 31.5772Z" fill="white"/>
<path d="M23.3556 7.14565C19.1463 7.54387 15.2146 9.42111 12.2583 12.444H19.3825C20.4741 10.5148 21.8095 8.73386 23.3556 7.14565Z" fill="white"/>
<path d="M30.0337 36.3605C30.8342 34.8377 31.4704 33.2343 31.932 31.5772H18.1934C18.6549 33.2343 19.2911 34.8377 20.0916 36.3605H30.0337Z" fill="white"/>
<path d="M20.7576 37.5563C21.9379 39.5235 23.3869 41.3167 25.0627 42.8836C26.7384 41.3167 28.1874 39.5235 29.3677 37.5563H20.7576Z" fill="white"/>
<path d="M42.052 20H7.82264C6.72579 23.5034 6.72579 27.2588 7.82264 30.7625H42.052C43.1489 27.2588 43.1489 23.5034 42.052 20ZM16.5455 28.5279C16.4755 28.7854 16.2434 28.9652 15.9765 28.9687H15.9686C15.7044 28.9687 15.4717 28.7953 15.3958 28.5422L14.1749 24.4724L12.954 28.5422C12.878 28.7953 12.6454 28.9687 12.3811 28.9687H12.3733C12.1067 28.9652 11.8743 28.7854 11.8043 28.5279L10.0105 21.9508L11.1643 21.6364L12.4086 26.1984L13.6044 22.22C13.6803 21.9669 13.913 21.7935 14.1772 21.7935C14.4414 21.7935 14.6744 21.9669 14.75 22.22L15.9459 26.1984L17.1902 21.6364L18.3442 21.9508L16.5455 28.5279ZM27.308 28.5279C27.2379 28.7854 27.0058 28.9652 26.739 28.9687H26.7311C26.4669 28.9687 26.2342 28.7953 26.1583 28.5422L24.9373 24.4724L23.7164 28.5422C23.6405 28.7953 23.4078 28.9687 23.1436 28.9687H23.1357C22.8692 28.9652 22.6368 28.7854 22.5667 28.5279L20.773 21.9508L21.9267 21.6364L23.171 26.1984L24.3669 22.22C24.4428 21.9669 24.6755 21.7935 24.9397 21.7935C25.2039 21.7935 25.4369 21.9669 25.5125 22.22L26.7083 26.1984L27.9526 21.6364L29.1067 21.9508L27.308 28.5279ZM38.0704 28.5279C38.0003 28.7854 37.7682 28.9652 37.5014 28.9687H37.4935C37.2293 28.9687 36.9966 28.7953 36.9207 28.5422L35.6998 24.4724L34.4788 28.5422C34.4029 28.7953 34.1703 28.9687 33.906 28.9687H33.8982C33.6316 28.9652 33.3992 28.7854 33.3291 28.5279L31.5354 21.9508L32.6892 21.6364L33.9335 26.1984L35.1293 22.22C35.2052 21.9669 35.4379 21.7935 35.7021 21.7935C35.9663 21.7935 36.1993 21.9669 36.2749 22.22L37.4707 26.1984L38.715 21.6364L39.8691 21.9508L38.0704 28.5279Z" fill="white"/>
</svg>
