<svg width="106" height="22" viewBox="0 0 106 22" fill="none" xmlns="http://www.w3.org/2000/svg">
<path d="M0 6.71827C1.26035 6.7241 2.5207 6.7416 3.77813 6.72702C4.12823 6.7241 4.27994 6.79995 4.27119 7.17631C4.26535 7.52932 4.33829 7.88234 4.38497 8.32288C5.56363 7.01585 6.95818 6.38276 8.64448 6.40609C10.322 6.42943 11.7312 7.02752 12.8165 8.37831C13.4291 7.76856 14.1002 7.29884 14.8704 6.97792C16.4692 6.30982 18.1117 6.21938 19.763 6.70368C21.7031 7.27259 22.7592 8.6613 23.156 10.5868C23.2465 11.0274 23.2961 11.4854 23.299 11.9347C23.3106 14.8318 23.3077 17.7259 23.3077 20.623C23.3077 20.7134 23.299 20.8068 23.2931 20.9235C21.8431 20.9235 20.4048 20.9235 18.9169 20.9235C18.9169 20.7863 18.9169 20.6521 18.9169 20.5179C18.9169 17.9593 18.9315 15.4007 18.9052 12.842C18.8994 12.3432 18.7944 11.8209 18.6223 11.3541C18.3597 10.6394 17.7674 10.2718 17.0089 10.2017C15.13 10.0296 13.7997 11.252 13.788 13.1951C13.7734 15.6253 13.7851 18.0556 13.7822 20.4858C13.7822 20.623 13.7822 20.763 13.7822 20.9235C12.3643 20.9235 10.9726 20.9235 9.54015 20.9235C9.54015 20.7805 9.54015 20.6434 9.54015 20.5063C9.54015 17.971 9.55182 15.4357 9.52848 12.9004C9.52556 12.4219 9.45262 11.923 9.30091 11.4679C9.04126 10.6948 8.44609 10.2718 7.62337 10.1959C5.75326 10.0267 4.41706 11.2812 4.40539 13.2447C4.3908 15.6632 4.40247 18.0818 4.40247 20.5033C4.40247 20.6405 4.40247 20.7776 4.40247 20.9614C2.90872 20.9614 1.4529 20.9614 0 20.9614C0 16.2088 0 11.4621 0 6.71827Z" fill="white"/>
<path d="M50.9041 0.436926C50.9041 2.76799 50.9041 5.10197 50.9041 7.48847C51.0063 7.4272 51.0559 7.40386 51.0967 7.37177C53.4861 5.51625 57.168 5.81384 59.216 8.03404C60.2459 9.14851 60.8031 10.4876 61.019 11.9668C61.2553 13.5947 61.1124 15.1964 60.4501 16.7164C59.394 19.1438 57.4451 20.4391 54.9128 20.938C52.6138 21.3902 50.3382 21.1014 48.0888 20.5617C47.6803 20.4654 47.2806 20.3341 46.8751 20.2378C46.6067 20.1766 46.5075 20.054 46.5104 19.7594C46.5279 18.0847 46.5192 16.4101 46.5192 14.7355C46.5192 10.1171 46.5192 5.50167 46.5192 0.8833C46.5192 0.731591 46.5046 0.5828 46.4958 0.431091C47.9633 0.436926 49.4337 0.436926 50.9041 0.436926ZM50.9479 14.7734C50.9333 14.7734 50.9187 14.7734 50.9041 14.7734C50.9041 15.4707 50.9216 16.168 50.8954 16.8652C50.8837 17.1745 50.9946 17.3291 51.2863 17.3583C51.9778 17.4225 52.678 17.5538 53.3665 17.5188C54.8019 17.4487 55.8259 16.7019 56.354 15.3657C56.8354 14.1403 56.8441 12.8858 56.3598 11.6575C55.9718 10.6744 55.2833 9.98874 54.1805 9.8808C52.5175 9.71742 51.1463 10.4001 50.9625 12.3023C50.8837 13.1192 50.9479 13.9507 50.9479 14.7734Z" fill="white"/>
<path d="M105.029 20.9556C104.422 20.9526 103.815 20.9439 103.209 20.9439C99.7427 20.9439 96.2796 20.9439 92.8137 20.9439C92.6766 20.9439 92.5394 20.9439 92.3586 20.9439C92.3586 20.1708 92.3877 19.4297 92.3469 18.6916C92.3206 18.216 92.4694 17.8718 92.7933 17.5217C94.9172 15.2198 97.0178 12.8946 99.1242 10.5781C99.2059 10.4877 99.2846 10.3943 99.4276 10.2309C97.1199 10.2309 94.9114 10.2309 92.6795 10.2309C92.6795 9.05517 92.6795 7.92027 92.6795 6.76495C96.7552 6.76495 100.831 6.76495 104.945 6.76495C104.953 6.8729 104.971 6.98376 104.971 7.09755C104.974 7.87651 104.985 8.65548 104.962 9.43444C104.956 9.60949 104.877 9.82247 104.761 9.95375C102.584 12.3636 100.393 14.7647 98.2081 17.1687C98.1147 17.2708 98.0243 17.3729 97.8726 17.5421C100.315 17.5421 102.672 17.5421 105.032 17.5421C105.029 18.6741 105.029 19.8148 105.029 20.9556Z" fill="white"/>
<path d="M69.5993 0.437012C69.4797 0.661657 69.3688 0.889221 69.2404 1.10803C68.654 2.10873 68.0647 3.1065 67.4754 4.1072C67.4258 4.19472 67.3645 4.27349 67.2828 4.39894C67.0523 4.008 66.8393 3.65499 66.6322 3.29614C66.0808 2.34504 65.5294 1.39103 64.978 0.439929C66.5184 0.437012 68.0589 0.437012 69.5993 0.437012Z" fill="white"/>
<path d="M42.5747 13.8398C42.5718 18.1694 39.2517 21.4369 34.8668 21.4311C30.4643 21.4253 27.1617 18.146 27.1705 13.7902C27.1792 9.45487 30.4818 6.24273 34.9193 6.25148C39.3101 6.26024 42.5777 9.49863 42.5747 13.8398ZM38.3532 13.5423C38.3065 13.2826 38.2656 12.8887 38.1577 12.5124C37.7405 11.0274 36.5239 10.0734 34.9951 10.0092C33.5247 9.94501 32.2644 10.7765 31.7101 12.1944C31.2316 13.4168 31.2783 14.6305 31.8647 15.8033C32.8391 17.7609 35.4182 18.3036 37.052 16.8944C38.0352 16.0484 38.3473 14.9222 38.3532 13.5423Z" fill="white"/>
<path d="M88.1311 20.9235C86.7424 20.9235 85.3712 20.9235 83.9708 20.9235C83.9241 20.4421 83.8803 19.9753 83.8307 19.4589C83.7344 19.5348 83.6819 19.5698 83.6323 19.6165C81.7797 21.3407 79.6266 21.7287 77.281 20.906C75.4926 20.2787 74.5969 18.8667 74.3081 17.0491C74.2235 16.5123 74.1885 15.9609 74.1855 15.4182C74.1739 12.6495 74.1797 9.88376 74.1797 7.11507C74.1797 7.00129 74.1914 6.88751 74.1972 6.75623C75.6501 6.75623 77.0797 6.75623 78.5443 6.75623C78.5501 6.90793 78.5647 7.05381 78.5647 7.19968C78.5647 9.7233 78.5588 12.2469 78.5705 14.7705C78.5734 15.1615 78.6084 15.567 78.7106 15.9434C79.1044 17.4021 80.8345 18.0235 82.2699 17.23C83.396 16.6085 83.7986 15.5787 83.8074 14.3708C83.8249 11.9756 83.8132 9.58034 83.8132 7.18509C83.8132 7.04797 83.8132 6.91377 83.8132 6.75623C85.272 6.75623 86.6869 6.75623 88.1311 6.75623C88.1311 11.4796 88.1311 16.1943 88.1311 20.9235Z" fill="white"/>
<path d="M65.2114 6.7533C66.6643 6.7533 68.0939 6.7533 69.5497 6.7533C69.5497 11.4738 69.5497 16.1855 69.5497 20.9206C68.1055 20.9206 66.6672 20.9206 65.2114 20.9206C65.2114 16.1942 65.2114 11.4825 65.2114 6.7533Z" fill="white"/>
</svg>
