<svg width="96" height="21" viewBox="0 0 96 21" fill="none" xmlns="http://www.w3.org/2000/svg">
<path d="M79.3378 6.28915C80.4874 6.28915 81.5219 6.28915 82.604 6.28915C82.6616 6.61141 82.7167 6.91618 82.7768 7.25843C85.0185 5.49224 87.1325 5.34235 89.1439 7.52073C89.6047 7.1585 90.0681 6.65138 90.6392 6.36409C93.2316 5.06506 95.829 6.46902 95.9342 9.34438C96.062 12.8293 95.9643 16.3192 95.9643 19.904C94.7845 19.904 93.6499 19.904 92.375 19.904C92.375 17.0087 92.3825 14.1508 92.37 11.2954C92.3675 10.7159 92.4251 10.0838 92.2097 9.57671C92.0168 9.12204 91.4833 8.50001 91.1151 8.51C90.6267 8.52499 89.993 8.98215 89.7199 9.43181C89.4469 9.88148 89.482 10.551 89.4795 11.1256C89.4594 14.0284 89.4695 16.9312 89.4695 19.9165C88.2647 19.9165 87.1601 19.9165 85.9002 19.9165C85.8777 19.4993 85.8376 19.0647 85.8351 18.63C85.8276 16.0919 85.8376 13.5562 85.8251 11.0181C85.8226 10.481 85.8726 9.88148 85.6547 9.42432C85.4594 9.01213 84.9284 8.49501 84.5501 8.50001C84.0918 8.505 83.423 8.9097 83.2327 9.3194C82.9521 9.92645 82.9446 10.6909 82.9371 11.3879C82.9095 14.2058 82.9246 17.0262 82.9246 19.9215C81.6797 19.9215 80.5426 19.9215 79.3353 19.9215C79.3378 15.3799 79.3378 10.9057 79.3378 6.28915Z" fill="white"/>
<path d="M0 0.351059C2.76023 0.351059 5.50292 0.206166 8.22057 0.401022C10.1642 0.538419 11.4241 1.89741 11.6446 3.82598C11.8249 5.4098 11.7447 7.04858 11.5744 8.6399C11.3816 10.4286 10.1592 11.4278 8.43347 11.7051C7.00827 11.9349 5.55552 12.0099 3.97002 12.1673C3.97002 14.7054 3.97002 17.256 3.97002 19.8691C2.5874 19.8691 1.35256 19.8691 0 19.8691C0 13.3414 0 6.81126 0 0.351059ZM4.03514 9.08457C5.37017 8.89471 6.87302 9.49177 7.49419 7.98538C8.05776 6.62639 8.20053 5.05756 7.24873 3.81349C6.45222 2.77676 5.1723 3.12899 4.03514 3.16896C4.03514 5.19246 4.03514 7.04858 4.03514 9.08457Z" fill="white"/>
<path d="M68.2493 6.31171C69.414 6.31171 70.5161 6.31171 71.7785 6.31171C71.7785 8.14534 71.776 9.92152 71.7785 11.6977C71.781 13.1541 71.7635 14.6105 71.7985 16.067C71.8186 16.9313 71.9588 17.8207 73.101 17.8381C74.2306 17.8556 74.6189 17.0537 74.6339 16.0969C74.679 13.3515 74.6639 10.6035 74.674 7.85806C74.6765 7.36842 74.674 6.88128 74.674 6.3217C75.9088 6.3217 77.0209 6.3217 78.2332 6.3217C78.2332 10.8209 78.2332 15.33 78.2332 19.9216C77.1837 19.9216 76.1568 19.9216 75.0121 19.9216C74.9595 19.6418 74.8969 19.307 74.8268 18.9298C74.684 18.9948 74.5763 19.0373 74.4736 19.0897C73.6671 19.4819 72.8956 20.074 72.0465 20.2264C69.9726 20.5961 68.4096 19.6068 68.3044 17.5658C68.114 13.8436 68.2493 10.1064 68.2493 6.31171Z" fill="white"/>
<path d="M48.5069 13.7561C46.2952 13.7561 44.2614 13.7561 41.9821 13.7561C42.0622 14.9377 42.0146 16.0569 42.2676 17.1036C42.3728 17.5333 43.1393 18.0954 43.5776 18.0729C44.0234 18.0504 44.557 17.4484 44.825 16.9737C45.0429 16.5865 44.9302 16.0094 44.9677 15.4324C46.1374 15.4324 47.2771 15.4324 48.4092 15.4324C48.7624 17.9405 47.5251 19.6717 45.0629 20.1538C44.6546 20.2338 44.2338 20.2513 43.8181 20.2788C40.106 20.5161 38.4103 19.0047 38.3878 15.3199C38.3753 13.4114 38.3928 11.4878 38.6383 9.60169C38.9463 7.23595 40.3064 6.14426 42.6984 5.98938C42.8637 5.97938 43.0316 5.97439 43.1994 5.97189C47.0517 5.89445 48.2464 6.96115 48.4969 10.7633C48.5595 11.7026 48.5069 12.6519 48.5069 13.7561ZM41.9671 11.6052C43.0466 11.6052 43.9308 11.6052 44.9552 11.6052C44.8876 10.7009 44.9602 9.84401 44.7122 9.09207C44.5795 8.68487 43.9132 8.2477 43.4599 8.21522C43.0766 8.18774 42.4204 8.6524 42.2977 9.02962C42.0447 9.82153 42.0647 10.6984 41.9671 11.6052Z" fill="white"/>
<path d="M21.7913 13.7461C19.5696 13.7461 17.4681 13.7461 15.2163 13.7461C15.2639 14.8328 15.2739 15.7771 15.3566 16.7139C15.4317 17.5433 15.8325 18.1628 16.7668 18.1379C17.686 18.1129 18.0667 17.5133 18.1319 16.664C18.1619 16.2942 18.1844 15.9245 18.2195 15.4499C19.3742 15.4499 20.5089 15.4499 21.646 15.4499C22.0192 17.4859 21.105 19.2246 19.1964 19.8741C18.4224 20.1389 17.5708 20.2463 16.7492 20.2838C13.4254 20.4337 11.8725 19.2071 11.6947 15.892C11.5694 13.5538 11.8024 11.178 12.0804 8.84227C12.2582 7.34838 13.3803 6.50901 14.8506 6.14927C19.3642 5.0451 21.6986 6.79879 21.7888 11.3979C21.8038 12.1323 21.7913 12.8718 21.7913 13.7461ZM18.192 11.6277C18.0041 10.4211 18.5326 9.14705 17.3879 8.33016C17.0774 8.10782 16.3009 8.1278 16.0003 8.36763C14.9358 9.2145 15.329 10.4461 15.284 11.6277C16.2433 11.6277 17.0999 11.6277 18.192 11.6277Z" fill="white"/>
<path d="M55.5001 14.9327C56.6824 14.9327 57.7569 14.9327 58.8214 14.9327C59.5979 17.5158 58.1627 19.8441 55.5677 20.1913C54.8314 20.2912 54.0674 20.2937 53.3235 20.2313C51.1995 20.0514 49.8845 19.0197 49.7192 16.9362C49.5188 14.4181 49.5138 11.86 49.7217 9.34438C49.8995 7.20097 51.2471 6.17673 53.4262 5.99937C53.8821 5.96189 54.3454 5.9569 54.8013 5.97688C57.8446 6.10928 59.3399 7.95291 58.9066 11.213C58.363 11.213 57.797 11.213 57.2284 11.213C56.6899 11.213 56.1514 11.213 55.5352 11.213C55.4575 10.541 55.4951 9.89647 55.2822 9.34688C55.1344 8.96466 54.646 8.48502 54.2978 8.47752C53.9622 8.47003 53.3235 8.99963 53.316 9.3094C53.2433 11.88 53.2559 14.4531 53.336 17.0212C53.346 17.3184 53.9422 17.8555 54.2202 17.8281C54.6109 17.7881 55.1495 17.3884 55.2797 17.0212C55.4976 16.4266 55.435 15.7271 55.5001 14.9327Z" fill="white"/>
<path d="M36.1159 19.944C34.7934 19.944 33.6838 19.944 32.4389 19.944C32.4389 16.2218 32.4389 12.5445 32.4389 8.7773C31.7927 8.72983 31.2692 8.69236 30.6355 8.64489C30.6355 7.90045 30.6355 7.14601 30.6355 6.31663C31.159 6.27666 31.685 6.23918 32.2911 6.19172C32.6393 4.28314 31.8328 1.97235 33.8992 0.623356C35.1515 -0.193537 36.5968 -0.061135 38.0721 0.20117C38.0721 0.930628 38.0721 1.62511 38.0721 2.3171C35.9355 2.87418 35.8028 3.14149 36.1835 6.17923C36.7671 6.2192 37.3707 6.26167 38.052 6.30913C38.052 7.07356 38.052 7.80052 38.052 8.6399C37.4534 8.67237 36.8498 8.70485 36.1134 8.74732C36.1159 12.4446 36.1159 16.1193 36.1159 19.944Z" fill="white"/>
<path d="M61.3087 8.7399C60.5673 8.70492 60.0363 8.67994 59.4351 8.65246C59.4351 7.86305 59.4351 7.13609 59.4351 6.32169C60.0162 6.27423 60.5798 6.22926 61.3012 6.1718C60.5848 3.17403 63.2448 3.57124 64.893 2.47705C64.893 3.86352 64.893 4.99268 64.893 6.21927C65.6995 6.21927 66.3507 6.21927 67.0971 6.21927C67.0971 7.04366 67.0971 7.77062 67.0971 8.63747C66.4559 8.63747 65.7721 8.63747 64.9731 8.63747C64.9731 11.5028 64.893 14.2358 65.0082 16.9613C65.0633 18.2453 66.2606 17.6708 67.0946 17.8206C67.0946 18.5576 67.0946 19.3095 67.0946 20.1564C66.5361 20.2014 66.0051 20.2588 65.4741 20.2838C62.5961 20.4212 61.3913 19.347 61.3212 16.4417C61.2611 13.9135 61.3087 11.3829 61.3087 8.7399Z" fill="white"/>
<path d="M22.8558 6.28919C23.9955 6.28919 25.0199 6.28919 26.1145 6.28919C26.1671 6.75385 26.2172 7.18103 26.2422 7.39337C27.3468 6.85877 28.479 6.30918 29.8316 5.65466C29.8316 6.98867 29.8316 7.92298 29.8316 8.94472C29.6136 8.95971 29.4183 8.97719 29.2229 8.98469C27.159 9.07212 26.4401 9.73663 26.3925 11.7901C26.3374 14.1134 26.3775 16.4391 26.3725 18.7649C26.3725 19.1296 26.3399 19.4944 26.3224 19.9266C25.1527 19.9266 24.0506 19.9266 22.8558 19.9266C22.8558 15.4074 22.8558 10.9083 22.8558 6.28919Z" fill="white"/>
</svg>
