<svg width="62" height="22" viewBox="0 0 62 22" fill="none" xmlns="http://www.w3.org/2000/svg">
<path d="M0.0629747 0.452081C3.02424 0.375507 3.87182 1.19595 3.88772 4.07572C3.90626 7.21802 3.87447 10.3603 3.89831 13.5026C3.9248 17.077 7.22245 18.934 10.2499 17.0962C11.5319 16.3168 11.712 14.9986 11.7226 13.6585C11.7517 9.74226 11.7359 5.826 11.7359 1.90701C11.7359 1.45849 11.7359 1.01272 11.7359 0.583353C14.3554 0.0746765 15.6189 1.00725 15.656 3.55337C15.7063 7.14965 15.7434 10.7514 15.6109 14.345C15.4758 18.0616 13.431 20.378 9.88176 20.8538C8.33226 21.0617 6.70595 21.0207 5.1591 20.7773C2.43092 20.3506 0.277521 18.2831 0.131841 15.3897C-0.117138 10.456 0.0629747 5.49235 0.0629747 0.452081Z" fill="white"/>
<path d="M47.9967 14.2731C44.5852 14.2731 41.2478 14.2731 37.8548 14.2731C37.7277 15.7717 38.072 16.9614 39.2719 17.656C40.6889 18.4765 42.3232 18.5722 43.478 17.4154C44.7573 16.13 46.1214 16.2038 47.6206 16.305C46.9293 20.1693 43.2131 21.5313 39.8201 20.9843C35.7994 20.3362 33.3546 16.5867 33.9797 12.0579C34.5624 7.84077 38.0879 5.08134 42.2252 5.60916C45.8592 6.06861 48.4788 9.88368 47.9967 14.2731ZM37.8733 11.7516C40.0214 11.7516 42.0874 11.7516 44.1667 11.7516C43.8065 9.37227 42.747 8.39594 40.7869 8.52448C39.0123 8.63934 37.929 9.80437 37.8733 11.7516Z" fill="white"/>
<path d="M31.9588 11.0159C31.082 11.0159 30.2371 11.1089 29.4292 10.9776C28.9869 10.9065 28.4651 10.5455 28.2188 10.1544C26.8626 7.983 24.0153 7.90369 22.8286 10.1408C21.7241 12.2247 21.7321 14.4563 22.7836 16.5594C23.7981 18.5886 26.8785 18.9086 27.8215 16.9669C28.6955 15.1646 29.9166 15.0224 31.4714 15.1646C31.6886 15.1838 31.9084 15.2057 32.1256 15.2248C31.7866 19.0864 28.9498 21.3289 24.7754 21.0664C20.6249 20.8038 18.098 17.5467 18.3126 12.7416C18.5139 8.26742 21.401 5.54627 25.8323 5.58183C29.1697 5.60917 32.2687 8.09239 31.9588 11.0159Z" fill="white"/>
<path d="M54.3828 20.6862C52.0069 21.0062 50.7143 20.0818 50.6905 17.8557C50.6348 12.2083 50.6693 6.55815 50.6746 0.908018C50.6746 0.779482 50.7461 0.65368 50.7805 0.536083C53.3153 0.13133 54.4357 0.869731 54.4649 3.22441C54.5337 8.9183 54.4887 14.6122 54.4834 20.3088C54.4834 20.4346 54.4146 20.5632 54.3828 20.6862Z" fill="white"/>
<path d="M61.9316 20.6671C59.4365 20.9788 58.3108 20.0353 58.3029 17.6123C58.2817 12.2356 58.2923 6.85898 58.2923 1.48506C58.2923 1.17329 58.3267 0.861522 58.3426 0.566161C61.1025 0.101242 61.9925 0.858787 61.9952 3.62916C62.0005 8.91283 62.0005 14.1992 61.9978 19.4829C61.9978 19.8822 61.9554 20.2815 61.9316 20.6671Z" fill="white"/>
</svg>
