<svg width="147" height="17" viewBox="0 0 147 17" fill="none" xmlns="http://www.w3.org/2000/svg">
<path d="M146.881 16.1542C144.552 16.1459 142.219 16.1376 139.889 16.1335C137.706 16.1293 135.527 16.121 133.344 16.1418C132.852 16.1459 132.685 16.0131 132.685 15.4986C132.706 10.7638 132.706 6.02902 132.685 1.29425C132.681 0.725742 132.881 0.572205 133.415 0.572205C136.763 0.584654 140.111 0.576354 143.458 0.580504C144.598 0.580504 145.737 0.609552 146.881 0.622001C146.881 1.76316 146.881 2.90432 146.881 4.04548C146.61 4.14922 146.326 4.16997 146.038 4.16997C143.321 4.16582 140.603 4.16582 137.886 4.16582C136.32 4.16582 136.345 4.16582 136.312 5.72195C136.3 6.28215 136.483 6.43154 137.03 6.42739C139.977 6.40249 142.924 6.42739 145.871 6.40664C146.422 6.40249 146.568 6.60168 146.53 7.11209C146.48 7.77189 146.476 8.43583 146.48 9.09978C146.489 9.90482 146.501 9.90067 145.696 9.90067C142.786 9.89652 139.881 9.90897 136.972 9.88822C136.475 9.88407 136.27 10.021 136.316 10.5356C136.358 10.9879 136.358 11.4526 136.316 11.905C136.262 12.4652 136.479 12.6146 137.026 12.6104C140.01 12.5855 142.995 12.598 145.979 12.598C146.284 12.598 146.593 12.5855 146.881 12.7224C146.881 13.8719 146.881 15.0131 146.881 16.1542Z" fill="white"/>
<path d="M61.9491 8.35285C61.9491 10.7099 61.9366 13.071 61.9616 15.428C61.9658 15.9799 61.803 16.1708 61.2395 16.1418C60.4589 16.1003 59.67 16.1169 58.8853 16.1376C58.4595 16.1501 58.3259 15.9965 58.3259 15.5691C58.3426 12.5482 58.3343 9.52305 58.3259 6.50209C58.3259 6.33195 58.4553 6.06223 58.2007 6.01243C57.9795 5.96678 57.9335 6.24066 57.8417 6.39835C56.0468 9.44836 54.2477 12.4984 52.4654 15.5567C52.2316 15.9592 51.9561 16.1542 51.4636 16.1459C50.0694 16.121 50.0736 16.1418 49.3264 14.8678C47.6985 12.0958 46.0663 9.32802 44.4384 6.56019C44.3883 6.47719 44.3466 6.39005 44.2881 6.31536C44.213 6.21991 44.188 6.03733 44.0085 6.09542C43.8415 6.14937 43.8833 6.31536 43.8833 6.43985C43.8791 7.35277 43.8791 8.2657 43.8791 9.17863C43.8791 11.2867 43.8666 13.3947 43.8874 15.5069C43.8916 15.9841 43.7246 16.1542 43.2571 16.1459C42.4139 16.1252 41.5708 16.1252 40.7317 16.1459C40.3519 16.1542 40.2225 16.0007 40.2225 15.6438C40.2267 12.1083 40.2267 8.56863 40.2267 5.03311C40.2267 3.77991 40.2267 2.52256 40.2183 1.26935C40.2183 0.837788 40.2684 0.588808 40.857 0.617855C42.1051 0.6801 43.3615 0.622005 44.6137 0.601257C45.0061 0.592957 45.1272 0.895883 45.2774 1.14486C46.2291 2.72589 47.1683 4.31521 48.1117 5.90039C49.0175 7.41917 49.9275 8.93795 50.8291 10.4609C51.0712 10.8675 51.2256 10.6684 51.3884 10.3986C52.3109 8.84666 53.2418 7.29883 54.1643 5.7427C55.116 4.14093 56.0593 2.535 57.0069 0.929081C57.1363 0.713298 57.3283 0.597107 57.5746 0.597107C58.8477 0.605406 60.1166 0.634454 61.3898 0.622005C61.8531 0.617855 61.9616 0.792142 61.9574 1.22786C61.9408 3.59732 61.9491 5.97508 61.9491 8.35285Z" fill="white"/>
<path d="M92.9967 16.1376C90.776 16.1376 88.8642 16.1252 86.9483 16.1459C86.4432 16.1501 86.2888 15.9758 86.2929 15.4861C86.3263 12.7971 86.3388 10.1123 86.343 7.42331C86.3472 5.37752 86.3221 3.33588 86.3055 1.29009C86.3013 0.704988 86.4682 0.572198 87.1194 0.580498C89.1355 0.605396 91.1517 0.646893 93.1636 0.626144C95.0295 0.605396 96.8995 0.522402 98.757 0.696689C100.26 0.833628 101.658 1.32744 102.51 2.69268C103.461 4.22391 103.428 5.83398 102.672 7.42746C102.489 7.81753 102.489 8.05406 102.752 8.39433C103.658 9.56869 103.687 10.9298 103.486 12.3075C103.182 14.428 101.554 15.8596 99.3372 16.0463C97.1249 16.2248 94.9084 16.0754 92.9967 16.1376ZM94.6162 12.5938C94.6162 12.5897 94.6162 12.5897 94.6162 12.5855C95.9937 12.5855 97.367 12.6021 98.7445 12.5772C99.5793 12.5606 99.9801 12.0626 99.9842 11.1331C99.9884 10.3447 99.6252 9.93801 98.8113 9.90066C97.9723 9.85917 97.1333 9.86747 96.2901 9.86331C94.3992 9.85502 92.5083 9.87161 90.6174 9.84257C90.058 9.83427 89.8702 10.0293 89.9161 10.5729C89.9579 11.0626 89.9412 11.5605 89.9203 12.0543C89.8994 12.4776 90.0664 12.6104 90.4921 12.6021C91.8655 12.5772 93.2388 12.5938 94.6162 12.5938ZM94.4409 4.19486C94.4409 4.18656 94.4409 4.17826 94.4409 4.16996C93.2346 4.16996 92.0324 4.16996 90.8261 4.16996C89.9412 4.16996 89.9412 4.16997 89.937 5.02065C89.937 5.22813 89.9495 5.43976 89.9245 5.64725C89.8702 6.16596 90.0747 6.33609 90.609 6.33194C93.0927 6.30705 95.5805 6.3195 98.0641 6.31535C98.2937 6.31535 98.5233 6.2863 98.7487 6.278C99.3665 6.2531 99.5543 5.87548 99.5626 5.32772C99.5793 4.60568 99.2579 4.21561 98.5066 4.19901C97.1541 4.17411 95.7975 4.19486 94.4409 4.19486Z" fill="white"/>
<path d="M73.7328 0.464335C75.6362 0.464335 76.9803 0.377192 78.3119 0.485084C80.0817 0.634472 81.693 1.18638 82.5111 2.97904C82.8742 3.77992 83.083 4.63476 83.0955 5.50619C83.1164 7.51878 83.1497 9.53967 83.0704 11.5481C83.0245 12.7266 82.7407 13.8802 81.8683 14.789C80.8915 15.8057 79.61 16.063 78.3035 16.0878C75.4776 16.1459 72.6433 16.2331 69.8174 16.0339C67.1543 15.8472 65.5472 14.4653 65.3176 11.8344C65.1048 9.39858 65.0505 6.92952 65.3803 4.49367C65.6808 2.26114 67.0541 1.04114 69.2748 0.617873C70.9444 0.306648 72.6225 0.555628 73.7328 0.464335ZM74.7095 12.5855C75.5235 12.5565 76.8843 12.681 78.2367 12.5274C79.1384 12.4237 79.3888 12.1955 79.4305 11.3033C79.5182 9.32804 79.5099 7.34864 79.4389 5.3734C79.4055 4.48537 79.1634 4.20319 78.2576 4.13265C75.6237 3.93346 72.9814 3.98326 70.3475 4.1036C69.1955 4.15754 68.8657 4.6555 68.849 5.84231C68.8323 6.94612 68.8406 8.04579 68.8448 9.1496C68.849 9.90899 68.7989 10.6725 68.8991 11.4278C68.9575 11.8635 69.1203 12.2494 69.5962 12.3739C70.0178 12.4859 70.4435 12.5938 70.8943 12.5897C71.988 12.5772 73.0816 12.5855 74.7095 12.5855Z" fill="white"/>
<path d="M29.1692 16.0795C26.815 16.0795 24.4608 16.0837 22.1065 16.0795C21.3552 16.0795 21.4345 16.0256 21.326 15.3077C21.1089 13.8636 21.7517 12.9216 22.7577 11.9713C25.2497 9.61018 27.6457 7.14942 30.075 4.72187C30.2128 4.58493 30.4883 4.46459 30.3839 4.2322C30.2838 3.99982 30.0083 4.12016 29.8121 4.12016C27.2324 4.11186 24.6486 4.09941 22.0648 4.12431C21.5263 4.12846 21.3009 3.99152 21.3343 3.42302C21.3761 2.64703 21.3594 1.86274 21.3385 1.08675C21.326 0.651037 21.4929 0.464302 21.9396 0.468451C24.3063 0.4892 26.6773 0.497499 29.044 0.497499C31.3356 0.497499 33.6273 0.4809 35.9189 0.472601C36.6327 0.468451 36.6661 0.497499 36.6702 1.20294C36.6828 3.16989 36.6702 3.16159 35.2886 4.54758C32.8258 7.01663 30.3756 9.50229 27.9253 11.9838C27.8001 12.1083 27.558 12.2162 27.6791 12.4361C27.7709 12.6062 27.9921 12.5232 28.1549 12.5232C30.9099 12.5191 33.6648 12.5233 36.424 12.5025C36.8581 12.4984 37 12.6685 36.9917 13.0752C36.975 13.8179 36.9875 14.5607 36.9875 15.2994C36.9875 16.0588 36.975 16.0754 36.2278 16.0754C33.8777 16.0837 31.5235 16.0837 29.1692 16.0795Z" fill="white"/>
<path d="M14.2299 6.17431C14.2299 4.51859 14.2382 2.86287 14.2215 1.20715C14.2174 0.792187 14.3468 0.6262 14.7809 0.638649C15.6616 0.663547 16.5424 0.655248 17.4231 0.642799C17.7863 0.638649 17.9407 0.763139 17.9324 1.14076C17.9073 3.04131 17.8739 4.93771 17.8906 6.83826C17.9073 8.58527 17.9699 10.3281 17.7612 12.071C17.4983 14.2662 16.1166 15.7227 13.9043 16.0339C11.5793 16.3618 9.24173 16.1626 6.91254 16.2124C5.7062 16.2373 4.49569 16.1916 3.3311 15.8596C1.70734 15.4032 0.688842 14.3741 0.288121 12.7059C0.112806 11.9756 0.0251482 11.2452 0.020974 10.5107C0.000103112 7.44411 0.0167998 4.3775 0.000103113 1.31505C-0.00407107 0.833684 0.11698 0.62205 0.638752 0.642799C1.46107 0.680146 2.28755 0.663547 3.10987 0.646948C3.47302 0.638649 3.62746 0.767289 3.62329 1.14076C3.61077 2.5807 3.59407 4.01648 3.62329 5.45642C3.66503 7.42751 3.56068 9.39861 3.67338 11.3656C3.70677 11.9216 3.928 12.2868 4.51656 12.4237C4.95068 12.5233 5.38062 12.5648 5.82308 12.5648C8.06461 12.5607 10.302 12.5731 12.5435 12.5565C13.7916 12.5482 14.2299 12.0876 14.2299 10.851C14.2341 9.29487 14.2299 7.73459 14.2299 6.17431Z" fill="white"/>
<path d="M115.721 8.41925C115.721 6.04564 115.725 3.66788 115.717 1.29426C115.712 0.792153 115.838 0.526574 116.43 0.568071C117.19 0.622016 117.962 0.605418 118.726 0.57222C119.235 0.551472 119.386 0.750656 119.386 1.24032C119.369 4.77584 119.386 8.31551 119.365 11.851C119.361 12.3822 119.482 12.5772 120.062 12.5731C122.951 12.544 125.839 12.5565 128.728 12.5565C129.479 12.5565 129.487 12.5689 129.479 13.3325C129.471 14.0379 129.437 14.7433 129.487 15.4405C129.525 15.9675 129.358 16.1418 128.828 16.1376C125.71 16.121 122.592 16.1293 119.473 16.1335C118.459 16.1335 117.445 16.1044 116.43 16.1459C115.854 16.1708 115.729 15.9592 115.738 15.428C115.763 13.0918 115.75 10.7555 115.75 8.41925C115.738 8.41925 115.729 8.41925 115.721 8.41925Z" fill="white"/>
<path d="M107.61 8.38196C107.61 6.02494 107.623 3.66378 107.598 1.30677C107.594 0.771459 107.736 0.543227 108.303 0.572275C109.088 0.609622 109.873 0.593023 110.658 0.576425C111.058 0.568125 111.246 0.692616 111.246 1.13248C111.234 5.9627 111.234 10.7971 111.242 15.6273C111.242 16.0423 111.067 16.1501 110.687 16.1418C109.864 16.1252 109.038 16.1128 108.22 16.146C107.731 16.1667 107.598 15.98 107.598 15.5152C107.615 13.1375 107.606 10.7597 107.61 8.38196C107.606 8.38196 107.606 8.38196 107.61 8.38196Z" fill="white"/>
</svg>
